<svg xmlns="http://www.w3.org/2000/svg" version="1.1" xmlns:xlink="http://www.w3.org/1999/xlink" width="512" height="512" x="0" y="0" viewBox="0 0 512 512" style="enable-background:new 0 0 512 512" xml:space="preserve" class=""><g><path d="M68.343 93.092C30.443 136.713 7.5 193.677 7.5 256c0 137.243 111.257 248.5 248.5 248.5S504.5 393.243 504.5 256 393.243 7.5 256 7.5c-62.323 0-119.287 22.943-162.908 60.843m-1.154 326.97c-31.978-37.594-51.306-86.258-51.305-139.315.001-50.149 17.149-96.289 45.892-132.892 3.074-3.915 8.875-4.277 12.395-.757L389.651 413.08c3.52 3.52 3.158 9.32-.757 12.395-36.603 28.744-82.743 45.892-132.892 45.892-53.058.001-101.722-19.327-139.315-51.305m296.393-30.411L122.349 98.92c-3.52-3.52-3.158-9.321.757-12.395 36.603-28.744 82.743-45.892 132.892-45.892 118.676-.001 215.371 96.694 215.369 215.369-.001 50.149-17.149 96.289-45.892 132.892-3.075 3.915-8.876 4.277-12.395.757z" style="stroke-width:15;stroke-linecap:round;stroke-linejoin:round;stroke-miterlimit:10;" fill="none" stroke="#1a7e6c" stroke-width="15" stroke-linecap="round" stroke-linejoin="round" stroke-miterlimit="10" data-original="#000000" opacity="1" class=""></path><path d="M354.788 331.359c11.597-15.179 19.775-33.111 23.384-52.645l26.093-4.592v-.012c3.151 10.898 9.036 18.236 15.783 18.236 10.065 0 18.224-16.318 18.224-36.447s-8.159-36.447-18.224-36.447c-6.747 0-12.633 7.338-15.783 18.236v-.019l-26.134-4.596a123.55 123.55 0 0 0-19.655-47.341l15.217-21.717-.009-.009c9.934 5.478 19.285 6.505 24.055 1.735 7.117-7.117 1.348-24.425-12.886-38.658s-31.541-20.003-38.658-12.886c-4.771 4.771-3.744 14.122 1.735 24.056l-.014-.014-21.73 15.23a123.551 123.551 0 0 0-47.38-19.621l-4.589-26.073h-.013c10.898-3.151 18.236-9.037 18.236-15.783 0-10.064-16.318-18.224-36.447-18.224s-36.447 8.159-36.447 18.224c0 6.747 7.338 12.632 18.236 15.783h-.019l-4.586 26.076c-19.492 3.619-37.385 11.788-52.536 23.363M157.212 180.641c-11.59 15.17-19.765 33.09-23.377 52.61l-25.967 4.57v.013c-3.151-10.898-9.036-18.236-15.783-18.236-10.064 0-18.224 16.318-18.224 36.447s8.159 36.447 18.224 36.447c6.747 0 12.633-7.338 15.783-18.236v.019l25.985 4.57a123.566 123.566 0 0 0 19.717 47.491l-15.13 21.593.009.009c-9.934-5.478-19.285-6.505-24.055-1.734-7.117 7.117-1.347 24.425 12.886 38.658 14.234 14.234 31.541 20.003 38.658 12.886 4.771-4.771 3.744-14.122-1.734-24.055l.014.014 21.622-15.155a123.553 123.553 0 0 0 47.503 19.631l4.574 25.987h.013c-10.898 3.151-18.236 9.036-18.236 15.783 0 10.064 16.318 18.223 36.447 18.223s36.447-8.159 36.447-18.223c0-6.747-7.338-12.633-18.236-15.783h.019l4.58-26.043c19.442-3.631 37.29-11.789 52.409-23.339" style="stroke-width:15;stroke-linecap:round;stroke-linejoin:round;stroke-miterlimit:10;" fill="none" stroke="#1a7e6c" stroke-width="15" stroke-linecap="round" stroke-linejoin="round" stroke-miterlimit="10" data-original="#000000" opacity="1" class=""></path><path d="M272.567 206.3c0-9.15 7.417-16.567 16.567-16.567s16.567 7.417 16.567 16.567M173.167 272.567c0-9.15 7.417-16.567 16.567-16.567s16.567 7.417 16.567 16.567" style="stroke-width:15;stroke-linecap:round;stroke-linejoin:round;stroke-miterlimit:10;" fill="none" stroke="#1a7e6c" stroke-width="15" stroke-linecap="round" stroke-linejoin="round" stroke-miterlimit="10" data-original="#000000" opacity="1" class=""></path></g></svg>