<svg xmlns="http://www.w3.org/2000/svg" version="1.1" xmlns:xlink="http://www.w3.org/1999/xlink" width="512" height="512" x="0" y="0" viewBox="0 0 512 512" style="enable-background:new 0 0 512 512" xml:space="preserve" class=""><g><path d="M392.274 388.266H63.613c-13.282 0-24.048-10.767-24.048-24.048v-24.049c0-81.755 45.329-152.923 112.226-189.742M328.146 136.05c84.063 29.712 144.29 109.882 144.29 204.12v24.049c0 13.282-10.767 24.048-24.048 24.048H424.34" style="stroke-width:15;stroke-linecap:round;stroke-linejoin:round;stroke-miterlimit:10;" fill="none" stroke="#1a7e6c" stroke-width="15" stroke-linecap="round" stroke-linejoin="round" stroke-miterlimit="10" data-original="#000000" opacity="1"></path><path d="M472.435 340.169c17.709 0 32.065 14.356 32.065 32.065v0c0 26.563-21.534 48.097-48.097 48.097H55.597c-26.563 0-48.097-21.534-48.097-48.097v0c0-17.709 14.356-32.065 32.065-32.065M328.145 340.169V120.933c0-11.149-7.617-21.024-18.504-23.427-17.274-3.813-35.219-5.837-53.641-5.837s-36.367 2.024-53.641 5.837c-10.887 2.403-18.504 12.277-18.504 23.427v219.236" style="stroke-width:15;stroke-linecap:round;stroke-linejoin:round;stroke-miterlimit:10;" fill="none" stroke="#1a7e6c" stroke-width="15" stroke-linecap="round" stroke-linejoin="round" stroke-miterlimit="10" data-original="#000000" opacity="1"></path></g></svg>