<svg xmlns="http://www.w3.org/2000/svg" version="1.1" xmlns:xlink="http://www.w3.org/1999/xlink" width="512" height="512" x="0" y="0" viewBox="0 0 682.667 682.667" style="enable-background:new 0 0 512 512" xml:space="preserve" class=""><g><defs><clipPath id="a" clipPathUnits="userSpaceOnUse"><path d="M0 512h512V0H0Z" fill="#1a7e6c" opacity="1" data-original="#000000"></path></clipPath></defs><g clip-path="url(#a)" transform="matrix(1.33333 0 0 -1.33333 0 682.667)"><path d="M0 0h-9.068a8.128 8.128 0 0 0-8.129 8.128v22.333a8.128 8.128 0 0 0 8.129 8.128H0a8.129 8.129 0 0 0 8.129-8.128V8.128A8.129 8.129 0 0 0 0 0Z" style="stroke-width:15;stroke-linecap:round;stroke-linejoin:round;stroke-miterlimit:10;stroke-dasharray:none;stroke-opacity:1" transform="translate(260.534 7.5)" fill="none" stroke="#1a7e6c" stroke-width="15" stroke-linecap="round" stroke-linejoin="round" stroke-miterlimit="10" stroke-dasharray="none" stroke-opacity="" data-original="#000000" opacity="1"></path><path d="M0 0h-33.298a5.032 5.032 0 0 0-5.033 5.032v5.889c0 11.974 9.707 21.681 21.682 21.681 11.974 0 21.681-9.707 21.681-21.681V5.032A5.032 5.032 0 0 0 0 0Z" style="stroke-width:15;stroke-linecap:round;stroke-linejoin:round;stroke-miterlimit:10;stroke-dasharray:none;stroke-opacity:1" transform="translate(272.65 46.09)" fill="none" stroke="#1a7e6c" stroke-width="15" stroke-linecap="round" stroke-linejoin="round" stroke-miterlimit="10" stroke-dasharray="none" stroke-opacity="" data-original="#000000" opacity="1"></path><path d="M0 0v68.966a2.91 2.91 0 0 1-2.911 2.911h-30.344a2.911 2.911 0 0 1-2.912-2.911V0Z" style="stroke-width:15;stroke-linecap:round;stroke-linejoin:round;stroke-miterlimit:10;stroke-dasharray:none;stroke-opacity:1" transform="translate(274.083 78.691)" fill="none" stroke="#1a7e6c" stroke-width="15" stroke-linecap="round" stroke-linejoin="round" stroke-miterlimit="10" stroke-dasharray="none" stroke-opacity="" data-original="#000000" opacity="1"></path><path d="M0 0a982.61 982.61 0 0 1 53.909 5.537C69.333 7.552 80.87 20.694 80.87 36.249c0 13.505-10.948 24.453-24.453 24.453h-.729c-11.165 0-22.115-2.766-32.096-7.769-26.056-13.058-59.929-20.949-96.958-20.949-37.03 0-70.903 7.891-96.958 20.949-9.981 5.003-20.932 7.769-32.097 7.769h-.728c-13.505 0-24.453-10.948-24.453-24.453 0-15.555 11.537-28.697 26.96-30.712A982.29 982.29 0 0 1-34.954-1.992" style="stroke-width:15;stroke-linecap:round;stroke-linejoin:round;stroke-miterlimit:10;stroke-dasharray:none;stroke-opacity:1" transform="translate(329.366 232.377)" fill="none" stroke="#1a7e6c" stroke-width="15" stroke-linecap="round" stroke-linejoin="round" stroke-miterlimit="10" stroke-dasharray="none" stroke-opacity="" data-original="#000000" opacity="1"></path><path d="m0 0-15.244-2.864a314.806 314.806 0 0 0-116.244 0L-146.732 0" style="stroke-width:15;stroke-linecap:round;stroke-linejoin:round;stroke-miterlimit:10;stroke-dasharray:none;stroke-opacity:1" transform="translate(329.366 333.713)" fill="none" stroke="#1a7e6c" stroke-width="15" stroke-linecap="round" stroke-linejoin="round" stroke-miterlimit="10" stroke-dasharray="none" stroke-opacity="" data-original="#000000" opacity="1"></path><path d="M0 0h62.107c4.082 0 7.997-1.622 10.884-4.508l7.875-7.876" style="stroke-width:15;stroke-linecap:round;stroke-linejoin:round;stroke-miterlimit:10;stroke-dasharray:none;stroke-opacity:1" transform="translate(319.527 206.401)" fill="none" stroke="#1a7e6c" stroke-width="15" stroke-linecap="round" stroke-linejoin="round" stroke-miterlimit="10" stroke-dasharray="none" stroke-opacity="" data-original="#000000" opacity="1"></path><path d="M0 0a421.506 421.506 0 0 1 11.889-73.159" style="stroke-width:15;stroke-linecap:round;stroke-linejoin:round;stroke-miterlimit:10;stroke-dasharray:none;stroke-opacity:1" transform="translate(147.293 358.4)" fill="none" stroke="#1a7e6c" stroke-width="15" stroke-linecap="round" stroke-linejoin="round" stroke-miterlimit="10" stroke-dasharray="none" stroke-opacity="" data-original="#000000" opacity="1"></path><path d="M0 0a421.611 421.611 0 0 1 11.016 144.926l-2.302 23.572c-2.814 28.799-27.026 50.761-55.962 50.761h-99.143c-28.937 0-53.149-21.962-55.962-50.761l-2.302-23.572a421.234 421.234 0 0 1-1.973-36.496" style="stroke-width:15;stroke-linecap:round;stroke-linejoin:round;stroke-miterlimit:10;stroke-dasharray:none;stroke-opacity:1" transform="translate(352.82 285.24)" fill="none" stroke="#1a7e6c" stroke-width="15" stroke-linecap="round" stroke-linejoin="round" stroke-miterlimit="10" stroke-dasharray="none" stroke-opacity="" data-original="#000000" opacity="1"></path><path d="M0 0c17.847-24.177 56.749-40.939 101.867-40.939S185.888-24.177 203.734 0" style="stroke-width:15;stroke-linecap:round;stroke-linejoin:round;stroke-miterlimit:10;stroke-dasharray:none;stroke-opacity:1" transform="translate(154.133 234.93)" fill="none" stroke="#1a7e6c" stroke-width="15" stroke-linecap="round" stroke-linejoin="round" stroke-miterlimit="10" stroke-dasharray="none" stroke-opacity="" data-original="#000000" opacity="1"></path><path d="M0 0v44.064" style="stroke-width:15;stroke-linecap:round;stroke-linejoin:round;stroke-miterlimit:10;stroke-dasharray:none;stroke-opacity:1" transform="translate(271.207 150.57)" fill="none" stroke="#1a7e6c" stroke-width="15" stroke-linecap="round" stroke-linejoin="round" stroke-miterlimit="10" stroke-dasharray="none" stroke-opacity="" data-original="#000000" opacity="1"></path><path d="M0 0v-44.064" style="stroke-width:15;stroke-linecap:round;stroke-linejoin:round;stroke-miterlimit:10;stroke-dasharray:none;stroke-opacity:1" transform="translate(240.793 194.634)" fill="none" stroke="#1a7e6c" stroke-width="15" stroke-linecap="round" stroke-linejoin="round" stroke-miterlimit="10" stroke-dasharray="none" stroke-opacity="" data-original="#000000" opacity="1"></path><path d="M0 0c0-10.656-8.639-19.294-19.294-19.294-10.656 0-19.295 8.638-19.295 19.294s8.639 19.295 19.295 19.295C-8.639 19.295 0 10.656 0 0Z" style="stroke-width:15;stroke-linecap:round;stroke-linejoin:round;stroke-miterlimit:10;stroke-dasharray:none;stroke-opacity:1" transform="translate(383.055 26.794)" fill="none" stroke="#1a7e6c" stroke-width="15" stroke-linecap="round" stroke-linejoin="round" stroke-miterlimit="10" stroke-dasharray="none" stroke-opacity="" data-original="#000000" opacity="1"></path><path d="M0 0c0-10.656 8.638-19.294 19.294-19.294 10.657 0 19.295 8.638 19.295 19.294s-8.638 19.295-19.295 19.295C8.638 19.295 0 10.656 0 0Z" style="stroke-width:15;stroke-linecap:round;stroke-linejoin:round;stroke-miterlimit:10;stroke-dasharray:none;stroke-opacity:1" transform="translate(128.945 26.794)" fill="none" stroke="#1a7e6c" stroke-width="15" stroke-linecap="round" stroke-linejoin="round" stroke-miterlimit="10" stroke-dasharray="none" stroke-opacity="" data-original="#000000" opacity="1"></path><path d="M0 0h104.622a5.783 5.783 0 0 1 5.783 5.784v5.587c0 11.726-9.505 21.231-21.23 21.231H-16.649" style="stroke-width:15;stroke-linecap:round;stroke-linejoin:round;stroke-miterlimit:10;stroke-dasharray:none;stroke-opacity:1" transform="translate(272.65 46.09)" fill="none" stroke="#1a7e6c" stroke-width="15" stroke-linecap="round" stroke-linejoin="round" stroke-miterlimit="10" stroke-dasharray="none" stroke-opacity="" data-original="#000000" opacity="1"></path><path d="M0 0h-13.685c-11.726 0-21.231-9.505-21.231-21.231v-5.587a5.783 5.783 0 0 1 5.784-5.784H75.49" style="stroke-width:15;stroke-linecap:round;stroke-linejoin:round;stroke-miterlimit:10;stroke-dasharray:none;stroke-opacity:1" transform="translate(163.861 78.691)" fill="none" stroke="#1a7e6c" stroke-width="15" stroke-linecap="round" stroke-linejoin="round" stroke-miterlimit="10" stroke-dasharray="none" stroke-opacity="" data-original="#000000" opacity="1"></path><path d="M0 0h-57.139" style="stroke-width:15;stroke-linecap:round;stroke-linejoin:round;stroke-miterlimit:10;stroke-dasharray:none;stroke-opacity:1" transform="translate(256 78.691)" fill="none" stroke="#1a7e6c" stroke-width="15" stroke-linecap="round" stroke-linejoin="round" stroke-miterlimit="10" stroke-dasharray="none" stroke-opacity="" data-original="#000000" opacity="1"></path></g></g></svg>