<svg xmlns="http://www.w3.org/2000/svg" version="1.1" xmlns:xlink="http://www.w3.org/1999/xlink" width="512" height="512" x="0" y="0" viewBox="0 0 512 512" style="enable-background:new 0 0 512 512" xml:space="preserve" class=""><g><path d="M481.95 316.371c-12.534-18.13-29.616-32.292-49.611-41.182v-90.596c9.179-2.089 16.056-10.301 16.056-20.103v-13.709c0-11.376-9.255-20.632-20.631-20.632h-87.596c-11.376 0-20.632 9.256-20.632 20.632v13.709c0 9.802 6.878 18.014 16.057 20.103v90.596a118.629 118.629 0 0 0-32.529 21.472v-77.655a7 7 0 0 0-9.877-6.381L172.592 266.99a7 7 0 0 0-4.123 6.381v85.387H127.29V177.909a7 7 0 0 0-7-7H56.9a7 7 0 0 0-7 7v180.849H16a7 7 0 0 0-7 7v130.243a7 7 0 0 0 7 7h367.966c65.635 0 119.034-53.398 119.034-119.034 0-24.302-7.279-47.677-21.05-67.596zM333.536 164.49v-13.709a6.64 6.64 0 0 1 6.632-6.632h87.596a6.639 6.639 0 0 1 6.631 6.632v13.709a6.64 6.64 0 0 1-6.631 6.632h-87.596a6.64 6.64 0 0 1-6.632-6.632zm11.643 121.851a7 7 0 0 0 4.414-6.505v-94.714h68.747v94.714a7 7 0 0 0 4.414 6.505c17.165 6.825 31.726 17.72 42.797 31.321-35.173-8.265-54.26-2.378-72.788 3.357-21.411 6.627-41.712 12.905-89.698-3.268v-.916c10.983-13.215 25.299-23.808 42.114-30.494zm-162.71 50.091h64.087a7 7 0 1 0 0-14h-64.087v-22.061h64.087a7 7 0 1 0 0-14h-64.087v-8.478l106.595-48.054v82.297a121.436 121.436 0 0 0-3.082 4.234 118.166 118.166 0 0 0-18.358 42.387h-85.156v-22.325zM63.9 184.909h49.39v17.146H80.485a7 7 0 1 0 0 14h32.805v142.703H63.9zM23 402.759h130.1a7 7 0 1 0 0-14H23v-16.001h242.474a120.622 120.622 0 0 0-.542 11.209c0 .154.005.306.006.46h-64.192a7 7 0 0 0-7 7v97.574H23zm184.747 86.242v-54.512h38.728a7 7 0 1 0 0-14h-38.728v-22.062h58.066c4.776 39.257 28.736 72.675 62.196 90.574zm176.219 0c-57.916 0-105.034-47.118-105.034-105.034 0-19.759 5.428-38.472 15.139-54.509 26.495 9.341 45.818 12.531 61.31 12.531 16.975 0 29.354-3.831 41.519-7.596 19.95-6.175 38.832-12.001 80.299.994 7.608 14.647 11.8 31.21 11.8 48.58.001 57.916-47.117 105.034-105.033 105.034zm16.846-427.932c4.555-14.69 8.488-27.377.295-41.568a7 7 0 1 1 12.124-7c11.253 19.491 5.781 37.141.953 52.714-4.2 13.547-7.827 25.248-.953 37.154a7 7 0 1 1-12.124 7c-9.934-17.207-4.813-33.726-.295-48.3zm-47.285 0c4.554-14.69 8.487-27.377.295-41.568a7 7 0 1 1 12.124-7c11.253 19.491 5.781 37.141.953 52.713-4.2 13.548-7.827 25.248-.953 37.154a7 7 0 1 1-12.124 7c-9.934-17.206-4.813-33.725-.295-48.299zm-265.26 91.519c14.229 0 27.237-6.86 35.248-18.254 10.001 3.035 20.937 2.333 30.47-1.972 11.858 11.086 27.579 17.349 43.926 17.349 20.115 0 38.706-9.216 50.846-24.934a43.262 43.262 0 0 0 15.102 2.727c23.783 0 43.132-19.349 43.132-43.131 0-23.783-19.349-43.132-43.132-43.132a43.165 43.165 0 0 0-16.378 3.225 64.254 64.254 0 0 0-49.569-23.343c-7.758 0-15.282 1.352-22.437 4.025-9.452-10.196-22.873-16.146-36.893-16.146-27.703 0-50.241 22.538-50.241 50.241 0 2.386.166 4.752.496 7.087a53.775 53.775 0 0 0-.569-.004c-23.783 0-43.131 19.349-43.131 43.131s19.347 43.131 43.13 43.131zm0-72.263c2.723 0 5.416.374 8.005 1.112a7 7 0 0 0 8.456-9.236 36.084 36.084 0 0 1-2.387-12.959c0-19.983 16.257-36.241 36.241-36.241 11.465 0 22.379 5.52 29.194 14.767a7.002 7.002 0 0 0 8.632 2.173c6.748-3.197 13.983-4.818 21.504-4.818 16.708 0 32.286 8.271 41.671 22.125a7.001 7.001 0 0 0 9.381 2.086 29.088 29.088 0 0 1 14.895-4.092c16.063 0 29.132 13.068 29.132 29.132 0 16.063-13.068 29.131-29.132 29.131a29.149 29.149 0 0 1-14.096-3.632 7.002 7.002 0 0 0-9.31 2.381c-9.288 14.688-25.191 23.458-42.542 23.458a50.383 50.383 0 0 1-37.396-16.665 7 7 0 0 0-8.922-1.249c-8.373 5.249-19.108 5.856-28.017 1.585a7 7 0 0 0-9.277 3.162c-4.987 9.896-14.962 16.044-26.033 16.044-16.063 0-29.131-13.068-29.131-29.132.001-16.064 13.069-29.132 29.132-29.132zm360.01 285.614c0 5.567-4.541 10.107-10.107 10.107s-10.107-4.54-10.107-10.107 4.541-10.107 10.107-10.107 10.107 4.54 10.107 10.107zm-103.375 55.185c0 5.567-4.541 10.107-10.107 10.107s-10.107-4.541-10.107-10.107 4.541-10.108 10.107-10.108 10.107 4.541 10.107 10.108zm84.598 20.713c0 3.897-3.178 7.075-7.075 7.075s-7.075-3.178-7.075-7.075 3.178-7.075 7.075-7.075 7.075 3.178 7.075 7.075zm-100.535-75.353c-3.897 0-7.075-3.179-7.075-7.075s3.178-7.075 7.075-7.075 7.075 3.178 7.075 7.075-3.178 7.075-7.075 7.075zm63.349 24.851c0 3.897-3.178 7.075-7.075 7.075s-7.075-3.178-7.075-7.075 3.178-7.075 7.075-7.075 7.075 3.178 7.075 7.075z" fill="#1a7e6c" opacity="1" data-original="#000000"></path></g></svg>