<?xml version="1.0" encoding="UTF-8" standalone="no"?>
<!DOCTYPE svg PUBLIC "-//W3C//DTD SVG 1.1//EN" "http://www.w3.org/Graphics/SVG/1.1/DTD/svg11.dtd">
<svg width="100%" height="100%" viewBox="0 0 8000 4500" version="1.1" xmlns="http://www.w3.org/2000/svg" xmlns:xlink="http://www.w3.org/1999/xlink" xml:space="preserve" xmlns:serif="http://www.serif.com/" style="fill-rule:evenodd;clip-rule:evenodd;stroke-miterlimit:10;">
    <g id="Page-1" serif:id="Page 1" transform="matrix(4.166667,0,0,4.166667,0,0)">
        <rect x="0" y="0" width="1920" height="1080" style="fill:none;"/>
        <clipPath id="_clip1">
            <rect x="0" y="0" width="1920" height="1080"/>
        </clipPath>
        <g clip-path="url(#_clip1)">
            <g id="BACKGROUND">
            </g>
            <g id="OBJECTS">
                <g transform="matrix(1,0,0,1,1024.7871,502.5387)">
                    <path d="M0,545.64C0,545.64 49.429,292.544 114.262,28.594C141.088,-80.625 183.259,-70.64 246.087,-63.603C335.034,-53.641 494.656,-26.633 516.521,38.747C528.817,75.515 423.545,521.533 392.351,573.382C360.534,626.265 3.548,564.625 0,545.64" style="fill:rgb(255,160,155);fill-rule:nonzero;"/>
                </g>
                <g transform="matrix(1,0,0,1,1337.0527,520.6088)">
                    <path d="M0,-126.977C15.791,-129.76 88.32,-88.926 88.32,-88.926C88.32,-88.926 106.697,2.783 19.587,-4.506C-52.322,-10.524 -15.793,-124.193 0,-126.977" style="fill:rgb(255,160,155);fill-rule:nonzero;"/>
                </g>
                <g transform="matrix(1,0,0,1,1281.2109,625.7465)">
                    <path d="M0,-129.203C0,-129.203 89.006,-94.749 160.786,-104.798L126.332,-20.098L-4.307,0L-47.375,-57.423L0,-129.203Z" style="fill:rgb(255,252,255);fill-rule:nonzero;"/>
                </g>
                <g transform="matrix(1,0,0,1,1301.6533,1040.7191)">
                    <path d="M0,-563.766C5.284,-547.914 42.486,-480.817 42.486,-480.817C42.486,-480.817 109.361,-531.507 114.646,-536.79C119.93,-542.075 126.004,-590.999 126.004,-590.999L160.351,-567.221C160.351,-567.221 273.957,-530.233 291.13,-502.492C308.304,-474.75 363.786,-343.97 369.069,-322.834C374.354,-301.698 370.391,-251.499 370.391,-251.499L192.055,-215.832L136.572,58.938L-213.496,33.838C-213.496,33.838 -295.398,24.591 -299.361,11.381C-303.324,-1.829 -185.755,-567.221 -148.767,-594.962C-111.778,-622.704 -30.779,-601.784 -30.779,-601.784L14.162,-612.322L11.465,-591.416C11.465,-591.416 -5.284,-579.618 0,-563.766" style="fill:rgb(0,154,225);fill-rule:nonzero;"/>
                </g>
                <g transform="matrix(1,0,0,1,1223.6914,618.6647)">
                    <path d="M0,-96.881L83.713,0C83.713,0 1.882,-59.257 0,-96.881Z" style="fill:none;fill-rule:nonzero;stroke:rgb(30,36,59);stroke-width:1.5px;"/>
                </g>
                <g transform="matrix(1,0,0,1,1426.8594,700.4976)">
                    <path d="M0,63.018L121.337,-12.229C121.337,-12.229 59.258,75.247 0,63.018Z" style="fill:none;fill-rule:nonzero;stroke:rgb(30,36,59);stroke-width:1.5px;"/>
                </g>
                <g transform="matrix(0.888435,-0.459003,-0.459003,-0.888435,1360.038992,546.924827)">
                    <path d="M-34.56,-9.709C-34.56,-9.709 -54.082,51.548 -52.306,57.737C-50.529,63.926 -34.56,75.576 -34.56,75.576L-70.613,82.83C-70.613,82.83 -36.817,139.018 -29.65,136.869" style="fill:none;fill-rule:nonzero;stroke:rgb(30,36,59);stroke-width:2.5px;"/>
                </g>
                <g transform="matrix(1,0,0,1,1416.2988,561.1867)">
                    <path d="M0,-57.258C0,-57.258 -64.828,-11.241 -82.508,10.227L-91.347,30.431C-91.347,30.431 -73.668,11.49 -69.879,11.49C-66.091,11.49 17.255,-17.555 17.255,-17.555L4.627,-33.971C4.627,-33.971 46.3,-16.292 52.613,-18.818C58.928,-21.343 70.293,-22.606 67.768,-27.657C65.242,-32.709 45.705,-87.689 45.705,-87.689" style="fill:none;fill-rule:nonzero;stroke:rgb(30,36,59);stroke-width:2.5px;"/>
                </g>
                <g transform="matrix(1,0,0,1,1425.373,443.6816)">
                    <path d="M0,-11.999C0,-11.999 -72.529,-52.833 -88.32,-50.05C-95.355,-48.81 -106.487,-25.554 -110.333,0.381C-82.677,29.076 -43.494,40.834 -10.324,26.921C-6.614,25.366 -2.768,22.45 1.015,18.571C2.776,1.976 0,-11.999 0,-11.999" style="fill:rgb(255,104,107);fill-rule:nonzero;"/>
                </g>
                <g transform="matrix(-0.217277,0.97611,0.97611,0.217277,1334.643433,451.473761)">
                    <path d="M-26.517,-20.745C-26.517,-20.745 3.115,-24.273 16.52,-20.745" style="fill:none;fill-rule:nonzero;stroke:rgb(30,36,59);stroke-width:2.5px;"/>
                </g>
                <g transform="matrix(-0.054501,0.998514,0.998514,0.054501,1458.832243,460.02701)">
                    <path d="M-35.736,-33.839C-35.736,-33.839 19.875,-32.644 32.042,-33.839" style="fill:none;fill-rule:nonzero;stroke:rgb(30,36,59);stroke-width:2.5px;"/>
                </g>
                <g transform="matrix(-0.093602,0.99561,0.99561,0.093602,1303.211976,526.232077)">
                    <path d="M-88.481,-111.258L99.358,-111.258L101.739,-85.347L-89.463,-80.826L-88.481,-111.258Z" style="fill:rgb(10,33,99);fill-rule:nonzero;"/>
                </g>
                <g transform="matrix(-0.570839,0.821062,0.821062,0.570839,1522.685837,676.724274)">
                    <path d="M-146.31,-102.548L58.1,-102.548L51.776,-73.85L-152.122,-77.388L-146.31,-102.548Z" style="fill:rgb(10,33,99);fill-rule:nonzero;"/>
                </g>
                <g transform="matrix(1,0,0,1,1171.9531,1115.0436)">
                    <path d="M0,-519.484L239.763,-468.335L274.928,-461.941L274.928,-393.21L327.676,-220.581L284.519,0L-167.833,-27.172L-188.612,-67.132C-188.612,-67.132 -115.085,-383.619 -111.889,-390.012C-108.691,-396.406 -75.125,-426.776 -75.125,-426.776L-63.937,-453.949L0,-519.484Z" style="fill:rgb(0,73,155);fill-rule:nonzero;"/>
                </g>
                <g transform="matrix(1,0,0,1,1195.793,632.1672)">
                    <path d="M0,-24.635C18.938,-21.253 14.927,3.741 -4.49,2.302C-24.693,0.806 -20.952,-28.376 0,-24.635" style="fill:rgb(255,208,98);fill-rule:nonzero;"/>
                </g>
                <g transform="matrix(1,0,0,1,1418.0303,686.0422)">
                    <path d="M0,-24.634C18.938,-21.252 14.927,3.742 -4.489,2.303C-24.692,0.807 -20.951,-28.376 0,-24.634" style="fill:rgb(255,208,98);fill-rule:nonzero;"/>
                </g>
                <g transform="matrix(1,0,0,1,1249.7842,656.4277)">
                    <path d="M0,-25.373L123.555,0C123.555,0 18.754,-1.103 0,-25.373Z" style="fill:none;fill-rule:nonzero;stroke:rgb(30,36,59);stroke-width:1.5px;"/>
                </g>
                <g transform="matrix(1,0,0,1,1361.2041,803.1474)">
                    <path d="M0,-27.579L91.562,-14.341C91.562,-14.341 18.753,0 0,-27.579Z" style="fill:none;fill-rule:nonzero;stroke:rgb(30,36,59);stroke-width:1.5px;"/>
                </g>
                <g transform="matrix(0.994059,0.108842,0.108842,-0.994059,1122.064302,689.068411)">
                    <path d="M-0.452,-8.274L151.585,-8.274" style="fill:none;fill-rule:nonzero;stroke:rgb(30,36,59);stroke-width:1.5px;"/>
                </g>
                <g transform="matrix(-0.986717,-0.162446,-0.162446,0.986717,1258.92155,710.32652)">
                    <path d="M-182.136,14.892L1.218,14.892" style="fill:none;fill-rule:nonzero;stroke:rgb(30,36,59);stroke-width:1.5px;"/>
                </g>
                <g transform="matrix(1,0,0,1,1259.7129,1040.327)">
                    <path d="M0,-31.992L169.887,-37.508C169.887,-37.508 70.603,5.516 0,-31.992Z" style="fill:none;fill-rule:nonzero;stroke:rgb(30,36,59);stroke-width:1.5px;"/>
                </g>
                <g transform="matrix(1,0,0,1,1137.2627,948.7648)">
                    <path d="M0,-37.508L105.903,0C105.903,0 12.135,-5.516 0,-37.508Z" style="fill:none;fill-rule:nonzero;stroke:rgb(30,36,59);stroke-width:1.5px;"/>
                </g>
                <g transform="matrix(1,0,0,1,1314.21,369.1855)">
                    <path d="M0,-11.854C0,-11.854 -19.728,-32.801 -34.545,-22.181C-49.361,-11.562 -27.494,20.947 -1.627,8.545L0,-11.854Z" style="fill:rgb(255,160,155);fill-rule:nonzero;"/>
                </g>
                <g transform="matrix(1,0,0,1,1283.9619,370.9038)">
                    <path d="M0,-18.145C-10.762,-11.638 4.384,6.508 16.416,-0.079C28.445,-6.662 10.763,-24.653 0,-18.145" style="fill:rgb(255,104,107);fill-rule:nonzero;"/>
                </g>
                <g transform="matrix(1,0,0,1,1473.1914,501.3984)">
                    <path d="M0,-116.039C-2.863,-113.241 -6.38,-110.953 -10.386,-109.627C-14.982,-108.105 -19.71,-108.993 -23.36,-111.46C-27.15,-97.387 -33.939,-85.006 -42.559,-77.004L-45.803,-71.599L-48.438,-14.16C-48.438,-14.16 -2.352,0 16.147,-24.821C31.652,-45.624 8.05,-99.225 0,-116.039" style="fill:rgb(10,33,99);fill-rule:nonzero;"/>
                </g>
                <g transform="matrix(-0.944532,0.328421,0.328421,0.944532,1403.737383,443.114472)">
                    <path d="M-25.318,-152.858C-33.062,-149.76 -39.805,-146.204 -45.634,-142.284C-107.817,-100.464 -65.877,-17.25 -25.318,-6.652C11.907,3.075 49.234,-7.815 70.202,-35.389C95.203,-68.271 62.636,-188.044 -25.318,-152.858" style="fill:rgb(255,160,155);fill-rule:nonzero;"/>
                </g>
                <g transform="matrix(1,0,0,1,1392.7656,416.2344)">
                    <path d="M0,-29.815C0,-29.815 8.113,-6.014 -4.236,-2.477C-16.586,1.06 -24.07,-23.543 -24.07,-23.543C-24.07,-23.543 -11.476,-30.875 0,-29.815" style="fill:rgb(10,33,99);fill-rule:nonzero;"/>
                </g>
                <g transform="matrix(-0.176199,-0.984355,-0.984355,0.176199,1374.876541,380.895019)">
                    <path d="M-10.523,-16.865C-9.322,-16.746 -8.59,-16.636 -8.59,-16.636C-5.524,-5.526 -10.523,8.163 -10.523,8.163C-10.523,8.163 -11.004,8.105 -11.814,7.977C-18.518,0.79 -15.064,-9.227 -10.523,-16.865" style="fill:white;fill-rule:nonzero;"/>
                </g>
                <g transform="matrix(-0.973823,-0.227307,-0.227307,0.973823,1378.9363,413.104838)">
                    <path d="M-9.491,-20.339C-2.284,-17.233 1.995,-10.246 1.88,-3.012C-1.726,-0.578 -5.702,0.565 -9.491,-1.545C-16.167,-5.265 -14.159,-14.323 -11.438,-21.05C-10.784,-20.848 -10.133,-20.616 -9.491,-20.339" style="fill:rgb(255,104,107);fill-rule:nonzero;"/>
                </g>
                <g transform="matrix(1,0,0,1,1392.7656,416.2344)">
                    <path d="M0,-29.815C0,-29.815 8.113,-6.014 -4.236,-2.477C-16.586,1.06 -24.07,-23.543 -24.07,-23.543C-24.07,-23.543 -11.476,-30.875 0,-29.815Z" style="fill:none;fill-rule:nonzero;stroke:rgb(30,36,59);stroke-width:1.5px;"/>
                </g>
                <g transform="matrix(-0.738053,0.674743,0.674743,0.738053,1409.166677,468.590567)">
                    <path d="M-93.788,-41.687C-37.079,12.283 11.36,-41.687 11.36,-41.687" style="fill:none;fill-rule:nonzero;stroke:rgb(30,36,59);stroke-width:2.5px;"/>
                </g>
                <g transform="matrix(0.571587,0.820541,0.820541,-0.571587,1338.302342,376.041933)">
                    <path d="M-17.733,-29.55C-17.733,-29.55 23.632,-64.919 59.671,-29.55" style="fill:none;fill-rule:nonzero;stroke:rgb(30,36,59);stroke-width:2.5px;"/>
                </g>
                <g transform="matrix(1,0,0,1,1390.6387,318.3724)">
                    <path d="M0,13.776C0,13.776 26.377,-5.276 37.761,18.925C37.761,18.925 12.71,11.911 3.044,19.052L0,13.776Z" style="fill:rgb(10,33,99);fill-rule:nonzero;"/>
                </g>
                <g transform="matrix(1,0,0,1,1363.5596,320.0665)">
                    <path d="M0,18.121C0,18.121 -22.646,-4.74 -38.123,17.403C-38.123,17.403 -12.2,14.328 -3.93,22.861L0,18.121Z" style="fill:rgb(10,33,99);fill-rule:nonzero;"/>
                </g>
                <g transform="matrix(-0.546178,-0.837669,-0.837669,0.546178,1363.765216,374.798307)">
                    <path d="M0.122,-13.758C0.122,-13.758 -7.32,-8.554 -5.994,-7.567C-4.671,-6.578 -0.285,-7.176 0.122,-5.253C0.53,-3.328 -7.905,-0.759 -10.099,-4.183C-12.294,-7.605 0.122,-13.758 0.122,-13.758" style="fill:rgb(255,104,107);fill-rule:nonzero;"/>
                </g>
                <g transform="matrix(1,0,0,1,1443.1924,368.1877)">
                    <path d="M0,9.866C-0.767,5.132 1.983,-2.751 7.629,-8.193C13.996,-14.336 22.217,-16.588 32.447,-10.516C44.345,-3.457 36.065,18.137 19.613,23.584C10.944,26.454 1.771,20.812 0.346,12.006L0,9.866Z" style="fill:rgb(255,160,155);fill-rule:nonzero;"/>
                </g>
                <g transform="matrix(1,0,0,1,1471.8213,383.2052)">
                    <path d="M0,-19.42C11.249,-13.887 -2.377,5.532 -14.896,0.035C-27.416,-5.463 -11.248,-24.952 0,-19.42" style="fill:rgb(255,104,107);fill-rule:nonzero;"/>
                </g>
                <g transform="matrix(1,0,0,1,1304.4063,262.2838)">
                    <path d="M0,106.244C0,106.244 11.126,62.931 30.694,50.504C50.263,38.077 71.027,48.255 96.608,34.582C96.608,34.582 103.539,88.315 143.14,91.761C143.14,91.761 121.284,116.159 140.37,140.757C140.37,140.757 140.684,101.382 153.487,93.377C153.487,93.377 163.135,88.241 171.233,95.388C171.233,95.388 204.267,71.946 180.087,28.328C154.123,-18.507 97.139,-4.137 97.139,-4.137C97.139,-4.137 -16.869,-34.513 -24.741,84.721C-24.741,84.721 2.499,75.37 0,106.244" style="fill:rgb(10,33,99);fill-rule:nonzero;"/>
                </g>
                <g transform="matrix(1,0,0,1,1301.7334,251.3362)">
                    <path d="M0,97.529C0,97.529 4.271,63.019 33.191,48.736C62.111,34.453 140.969,27.968 173.906,106.335C173.906,106.335 180.873,78.843 167.852,52.05C154.831,25.258 79.397,-8.806 29.667,32.147C2.419,54.586 0,97.529 0,97.529" style="fill:rgb(255,252,255);fill-rule:nonzero;"/>
                </g>
                <g transform="matrix(1,0,0,1,1375.2227,380.5656)">
                    <path d="M0,-13.384L-1.949,-5.889C-1.949,-5.889 -5.723,-11.185 -7.742,-9.865C-12.983,-6.439 -3.315,0 -3.983,-0.325C-4.651,-0.652 -8.184,-8.523 -6.413,-7.578C-4.642,-6.63 -3.17,-2.551 -1.156,-3.208C0.855,-3.864 0,-13.384 0,-13.384" style="fill:rgb(10,33,99);fill-rule:nonzero;"/>
                </g>
                <g transform="matrix(0.10815,0.994135,0.994135,-0.10815,1376.861718,391.852184)">
                    <path d="M-6.9,-9.912C-6.9,-9.912 -0.206,-6.467 10.807,-9.912" style="fill:none;fill-rule:nonzero;stroke:rgb(30,36,59);stroke-width:1.5px;"/>
                </g>
                <g transform="matrix(0.376175,0.926548,0.926548,-0.376175,1403.555748,378.367987)">
                    <path d="M-6.928,-10.29C-6.928,-10.29 5.23,-14.825 15.283,-10.29" style="fill:none;fill-rule:nonzero;stroke:rgb(30,36,59);stroke-width:1.5px;"/>
                </g>
                <g transform="matrix(1,0,0,1,1501.2793,1010.8438)">
                    <path d="M0,-448.126C0,-448.126 -22.455,-500.254 -20.417,-506.249C-18.379,-512.243 -18.677,-525.989 -26.216,-522.949C-33.756,-519.91 -42.203,-509.678 -44.59,-499.736C-46.975,-489.793 -44.759,-462.022 -44.759,-462.022C-44.759,-462.022 -84.159,-448.172 -87.521,-439.199C-90.883,-430.227 -88.509,-421.087 -86.629,-418.621C-84.749,-416.155 -80.194,-414.874 -80.194,-414.874C-80.194,-414.874 -83.493,-411.985 -82.479,-407.362C-81.467,-402.74 -75.136,-399.341 -75.136,-399.341C-75.136,-399.341 -80.416,-395.477 -76.656,-390.544C-72.896,-385.612 -63.647,-383.85 -63.647,-383.85C-63.647,-383.85 -65.938,-380.128 -62.249,-376.69C-58.561,-373.253 -31.585,-373.039 -28.109,-374.086C-24.635,-375.133 -11.538,-383.247 -11.538,-383.247C-11.538,-383.247 8.217,-57.756 14.615,-33.331C30.756,28.28 98.869,77.863 179.291,31.885C267.979,-18.82 235.775,-109.615 222.104,-142.964C213.516,-163.916 0,-448.126 0,-448.126" style="fill:rgb(255,160,155);fill-rule:nonzero;"/>
                </g>
                <g transform="matrix(0.09135,-0.995819,-0.995819,-0.09135,1509.473215,682.627001)">
                    <path d="M-6.134,-93.037C1.938,-85.832 9.933,-78.685 17.746,-71.691L-6.134,15.513C-39.682,10.275 -83.518,3.369 -126.85,-3.634C-115.024,-30.035 -48.234,-69.928 -6.134,-93.037" style="fill:rgb(255,104,107);fill-rule:nonzero;"/>
                </g>
                <g transform="matrix(1,0,0,1,1723.3838,594.4879)">
                    <path d="M0,273.392C-8.589,252.44 -222.104,-31.77 -222.104,-31.77C-222.104,-31.77 -244.56,-83.898 -242.521,-89.893C-240.483,-95.887 -240.781,-109.633 -248.32,-106.593C-255.86,-103.554 -264.308,-93.322 -266.694,-83.38C-269.079,-73.438 -266.863,-45.666 -266.863,-45.666C-266.863,-45.666 -306.264,-31.816 -309.625,-22.843C-312.987,-13.871 -310.613,-4.731 -308.733,-2.265C-306.854,0.201 -302.299,1.482 -302.299,1.482C-302.299,1.482 -305.598,4.371 -304.584,8.994C-303.571,13.616 -297.24,17.015 -297.24,17.015C-297.24,17.015 -302.521,20.879 -298.761,25.812C-295.001,30.744 -285.752,32.506 -285.752,32.506C-285.752,32.506 -288.042,36.228 -284.354,39.665C-280.665,43.103 -253.689,43.317 -250.214,42.27C-246.739,41.223 -233.643,33.109 -233.643,33.109C-233.643,33.109 -226.922,143.848 -220.051,240.989C-218.447,263.651 -216.836,285.573 -215.3,305.175C-212.133,345.604 -209.285,376.17 -207.489,383.025" style="fill:none;fill-rule:nonzero;stroke:rgb(30,36,59);stroke-width:2.5px;"/>
                </g>
                <g transform="matrix(1,0,0,1,1448.7305,595.9693)">
                    <path d="M0,-22.73C0,-22.73 1.014,-18.108 -1.452,-16.228C-3.918,-14.348 -27.646,0 -27.646,0" style="fill:none;fill-rule:nonzero;stroke:rgb(30,36,59);stroke-width:2.5px;"/>
                </g>
                <g transform="matrix(1,0,0,1,1454.2871,611.5034)">
                    <path d="M0,-12.268C0,-12.268 -2.705,-6.147 -4.442,-5.623C-6.18,-5.1 -28.144,0 -28.144,0" style="fill:none;fill-rule:nonzero;stroke:rgb(30,36,59);stroke-width:2.5px;"/>
                </g>
                <g transform="matrix(1,0,0,1,1461.4717,626.9943)">
                    <path d="M0,-6.423C0,-6.423 -5.284,-6.348 -7.821,-5.962C-10.358,-5.577 -23.84,0 -23.84,0" style="fill:none;fill-rule:nonzero;stroke:rgb(30,36,59);stroke-width:2.5px;"/>
                </g>
                <g transform="matrix(1,0,0,1,1473.4658,486.7962)">
                    <path d="M0,251.653C0,251.653 41.155,263.853 45.45,262.559C49.746,261.266 156.676,207.975 156.676,207.975C156.676,207.975 56.757,94.007 53.742,87.888C50.729,81.768 17.478,29.707 17.478,29.707C17.478,29.707 14.146,-8.267 7.685,-10.233C1.225,-12.2 -5.172,-9.621 -10.012,-6.207C-14.852,-2.793 -23.912,23.41 -23.912,23.41L-26.152,52.775C-26.152,52.775 -67.869,74.469 -67.625,79.612C-67.38,84.755 -64.786,104.187 -64.786,104.187C-64.786,104.187 -68.604,113.162 -66.386,118.362C-64.167,123.562 -55.373,126.781 -55.373,126.781C-55.373,126.781 -60.271,132.169 -57.635,136.591C-54.998,141.013 -44.828,144.47 -44.828,144.47C-44.828,144.47 -44.756,155.534 -37.157,159.114C-29.559,162.693 -3.73,157.521 -3.73,157.521L-7.85,184.669L0,251.653Z" style="fill:rgb(255,208,98);fill-rule:nonzero;"/>
                </g>
                <g transform="matrix(1,0,0,1,1479.8877,657.9615)">
                    <path d="M0,-18.106L-21.028,-12.345L-21.05,-11.873C-14.968,-12.68 -10.152,-13.644 -10.152,-13.644L-13.514,8.511C7.532,0.756 12.262,-26.617 12.262,-26.617L0,-18.106Z" style="fill:rgb(255,173,0);fill-rule:nonzero;"/>
                </g>
                <g transform="matrix(1,0,0,1,1423.9375,559.7349)">
                    <path d="M0,20.812C0,20.812 8.187,0 10.79,3.107C13.394,6.214 21.205,15.537 0,20.812" style="fill:rgb(255,173,0);fill-rule:nonzero;"/>
                </g>
                <g transform="matrix(1,0,0,1,1432.1309,582.4019)">
                    <path d="M0,20.812C0,20.812 8.187,0 10.79,3.107C13.394,6.214 21.205,15.537 0,20.812" style="fill:rgb(255,173,0);fill-rule:nonzero;"/>
                </g>
                <g transform="matrix(1,0,0,1,1443.5322,605.7407)">
                    <path d="M0,20.812C0,20.812 8.187,0 10.79,3.108C13.394,6.215 21.206,15.537 0,20.812" style="fill:rgb(255,173,0);fill-rule:nonzero;"/>
                </g>
                <g transform="matrix(1,0,0,1,1473.4658,741.1912)">
                    <path d="M0,-2.742C0,-2.742 41.155,9.458 45.45,8.164C47.201,7.637 66,-1.527 87.659,-12.2" style="fill:none;fill-rule:nonzero;stroke:rgb(30,36,59);stroke-width:2.5px;"/>
                </g>
                <g transform="matrix(1,0,0,1,1465.6162,474.5968)">
                    <path d="M0,196.868L4.119,169.721C4.119,169.721 -21.709,174.892 -29.308,171.313C-36.906,167.733 -36.979,156.67 -36.979,156.67C-36.979,156.67 -47.148,153.213 -49.785,148.791C-52.421,144.368 -47.523,138.98 -47.523,138.98C-47.523,138.98 -56.317,135.762 -58.536,130.561C-60.754,125.361 -56.937,116.387 -56.937,116.387C-56.937,116.387 -59.53,96.954 -59.775,91.811C-60.02,86.669 -18.303,64.974 -18.303,64.974L-16.062,35.61C-16.062,35.61 -7.002,9.407 -2.162,5.993C2.678,2.578 9.074,0 15.534,1.966C21.995,3.932 25.327,41.907 25.327,41.907" style="fill:none;fill-rule:nonzero;stroke:rgb(30,36,59);stroke-width:2.5px;"/>
                </g>
                <g transform="matrix(1,0,0,1,1602.3701,574.6841)">
                    <path d="M0,133.896C15.944,125.981 27.771,120.087 27.771,120.087C27.771,120.087 -72.147,6.12 -75.162,0" style="fill:none;fill-rule:nonzero;stroke:rgb(30,36,59);stroke-width:2.5px;"/>
                </g>
                <g transform="matrix(1,0,0,1,1433.9482,590.9836)">
                    <path d="M0,-23.094L0.876,-16.257L-25.269,0" style="fill:none;fill-rule:nonzero;stroke:rgb(30,36,59);stroke-width:1.5px;"/>
                </g>
                <g transform="matrix(1,0,0,1,1444.9365,613.5772)">
                    <path d="M0,-22.96C0,-22.96 -1.458,-16.012 -3.085,-15.522C-4.713,-15.031 -26.844,0 -26.844,0" style="fill:none;fill-rule:nonzero;stroke:rgb(30,36,59);stroke-width:1.5px;"/>
                </g>
                <g transform="matrix(1,0,0,1,1455.166,631.2669)">
                    <path d="M0,-16.511L-1.516,-10.235L-26.528,0" style="fill:none;fill-rule:nonzero;stroke:rgb(30,36,59);stroke-width:1.5px;"/>
                </g>
                <g transform="matrix(0.878801,-0.477188,-0.477188,-0.878801,1449.150976,541.55887)">
                    <path d="M-0.666,2.623L10.329,2.623" style="fill:none;fill-rule:nonzero;stroke:rgb(30,36,59);stroke-width:1.5px;"/>
                </g>
                <g transform="matrix(1,0,0,1,1455.1465,627.41)">
                    <path d="M0,18.714C0,18.714 23.44,14.021 24.74,12.445C26.042,10.87 40.52,0 40.52,0" style="fill:none;fill-rule:nonzero;stroke:rgb(30,36,59);stroke-width:1.5px;"/>
                </g>
                <g transform="matrix(1,0,0,1,1488.6191,601.493)">
                    <path d="M0,-15.158L34.153,0C34.153,0 23.231,-12.687 0,-15.158Z" style="fill:none;fill-rule:nonzero;stroke:rgb(30,36,59);stroke-width:1.5px;"/>
                </g>
                <g transform="matrix(0.21283,0.977089,0.977089,-0.21283,1536.450529,682.974388)">
                    <path d="M-25.724,-31.93L39.634,-31.93" style="fill:none;fill-rule:nonzero;stroke:rgb(30,36,59);stroke-width:1.5px;"/>
                </g>
                <g transform="matrix(0.126159,-0.99201,-0.99201,-0.126159,1582.587813,691.740634)">
                    <path d="M-45.975,52.192L59.25,52.192" style="fill:none;fill-rule:nonzero;stroke:rgb(30,36,59);stroke-width:1.5px;"/>
                </g>
                <g transform="matrix(1,0,0,1,1478.5264,704.1234)">
                    <path d="M0,25.902L38.967,38.032L138.845,-12.13" style="fill:none;fill-rule:nonzero;stroke:rgb(30,36,59);stroke-width:1.5px;"/>
                </g>
                <g transform="matrix(1,0,0,1,1560.375,646.1075)">
                    <path d="M0,47.54C0,47.54 0.282,0 5.222,1.25C10.161,2.5 20.635,13.033 20.635,13.033L0,47.54Z" style="fill:none;fill-rule:nonzero;stroke:rgb(30,36,59);stroke-width:1.5px;"/>
                </g>
                <g transform="matrix(1,0,0,1,1159.9346,340.2523)">
                    <path d="M0,-68.369L29.349,-87.63C29.349,-87.63 26.494,-105.299 32.601,-105.255C38.707,-105.211 51.516,-93.583 52.145,-86.793C52.145,-86.793 62.273,-79.934 64.255,-72.456C66.236,-64.978 67.529,-56.148 67.529,-56.148C67.529,-56.148 74.27,-49.992 72.854,-41.86C72.854,-41.86 95.205,-36.27 88.308,-20.713C81.409,-5.157 51.516,0.055 51.516,0.055L73.838,9.716C73.838,9.716 94.822,16.653 89.32,26.792C83.819,36.93 31.037,29.15 31.037,29.15L30.193,-3.944C30.193,-3.944 22.93,-2.447 19.889,-6.151C16.847,-9.855 18.745,-17.819 18.745,-17.819C18.745,-17.819 -0.953,-9.37 -8.268,-16.173C-15.582,-22.976 -5.237,-32.279 -7.692,-32.296C-10.146,-32.314 -19.788,-35.28 -18.49,-45.089C-17.192,-54.898 -1.22,-57.237 -1.22,-57.237C-1.22,-57.237 -8.754,-62.539 0,-68.369" style="fill:rgb(255,208,98);fill-rule:nonzero;"/>
                </g>
                <g transform="matrix(1,0,0,1,1159.9346,282.5343)">
                    <path d="M0,-10.651C0,-10.651 2.007,-5.186 7.02,-5.186C12.033,-5.186 47.125,-13.263 47.125,-13.263C47.125,-13.263 24.145,-0.498 18.367,0.5C12.59,1.498 -2.171,2.612 -4.398,-3.515C-4.398,-3.515 -5.071,-9.153 0,-10.651" style="fill:rgb(255,173,0);fill-rule:nonzero;"/>
                </g>
                <g transform="matrix(1,0,0,1,1242.1504,335.7959)">
                    <path d="M0,33.459C5.014,25.939 -47.624,8.672 -47.624,8.672C-37.319,7.001 -16.152,-4.975 -16.152,-4.975L-60.051,-0.036C-56.637,1.456 -52.021,0.512 -52.021,0.512L-51.217,32.102C-32.108,34.998 -3.316,38.434 0,33.459" style="fill:rgb(255,173,0);fill-rule:nonzero;"/>
                </g>
                <g transform="matrix(0.353337,0.935496,0.935496,-0.353337,1184.203448,296.835704)">
                    <path d="M21.7,-14.993C21.7,-14.993 14.686,-12.374 12.387,-5.85C10.088,0.675 21.7,31.418 21.7,31.418C21.7,31.418 17.154,-2.209 18.366,-6.727C19.578,-11.245 21.7,-14.993 21.7,-14.993" style="fill:rgb(255,173,0);fill-rule:nonzero;"/>
                </g>
                <g transform="matrix(1,0,0,1,1192.6953,276.1002)">
                    <path d="M0,59.935C0,59.935 -9.831,61.705 -12.872,58.001C-15.914,54.297 -14.016,46.333 -14.016,46.333C-14.016,46.333 -33.714,54.782 -41.028,47.979C-48.343,41.176 -37.998,31.873 -40.453,31.856C-42.907,31.838 -52.549,28.872 -51.251,19.063C-49.953,9.254 -33.98,6.915 -33.98,6.915C-33.98,6.915 -41.515,1.613 -32.761,-4.217L-3.412,-23.478C-3.412,-23.478 -6.267,-41.147 -0.16,-41.103C5.946,-41.059 18.755,-29.431 19.384,-22.641C19.384,-22.641 29.513,-15.782 31.494,-8.304C33.476,-0.826 34.769,8.004 34.769,8.004C34.769,8.004 41.509,14.16 40.094,22.292C40.094,22.292 62.444,27.882 55.547,43.439C48.648,58.995 18.755,64.207 18.755,64.207L41.077,73.868C41.077,73.868 62.062,80.806 56.56,90.944C51.059,101.082 -1.724,93.302 -1.724,93.302L-1.152,82.242" style="fill:none;fill-rule:nonzero;stroke:rgb(30,36,59);stroke-width:2.5px;"/>
                </g>
                <g transform="matrix(1,0,0,1,1161.6406,266.8835)">
                    <path d="M0,17.055C0,17.055 10.763,16.877 16.661,16.151C22.56,15.425 48.779,3.828 50.856,0" style="fill:none;fill-rule:nonzero;stroke:rgb(30,36,59);stroke-width:1.5px;"/>
                </g>
                <g transform="matrix(1,0,0,1,1159.418,283.8695)">
                    <path d="M0,23.882C0,23.882 41.853,11.886 48.794,8.606C55.736,5.325 63.462,0 63.462,0" style="fill:none;fill-rule:nonzero;stroke:rgb(30,36,59);stroke-width:1.5px;"/>
                </g>
                <g transform="matrix(1,0,0,1,1178.0049,305.6803)">
                    <path d="M0,18.348C0,18.348 3.628,12.738 7.23,10.714C10.832,8.69 49.329,0 49.329,0" style="fill:none;fill-rule:nonzero;stroke:rgb(30,36,59);stroke-width:1.5px;"/>
                </g>
                <g transform="matrix(1,0,0,1,1192.6953,327.0122)">
                    <path d="M0,9.023C0,9.023 18.299,5.967 23.942,4.983C29.587,3.999 40.873,2.287 43.452,0" style="fill:none;fill-rule:nonzero;stroke:rgb(30,36,59);stroke-width:1.5px;"/>
                </g>
                <g transform="matrix(0.930433,-0.366462,-0.366462,-0.930433,1015.097805,919.553616)">
                    <path d="M-43.313,-1.969L-13.441,-1.969L-10.184,228.088L-40.746,226.881L-43.313,-1.969Z" style="fill:rgb(0,154,225);fill-rule:nonzero;"/>
                </g>
                <g transform="matrix(1,0,0,1,844.6118,747.1951)">
                    <path d="M0,4.344L2.11,9.229L25.144,3.409L62.551,7.775L60.496,0.08L18.949,-4.885L0,4.344Z" style="fill:rgb(0,154,225);fill-rule:nonzero;"/>
                </g>
                <g transform="matrix(1,0,0,1,970.8467,750.0467)">
                    <path d="M0,-51.867L2.611,-47.231L-15.962,-32.419L-35.129,0L-40.011,-6.293L-18.815,-42.37L0,-51.867Z" style="fill:rgb(0,154,225);fill-rule:nonzero;"/>
                </g>
                <g transform="matrix(0.601138,0.799145,0.799145,-0.601138,790.733643,665.948041)">
                    <path d="M89.602,-46.07C91.923,-43.767 150.453,162.627 146.997,166.108C143.54,169.589 89.602,176.714 89.602,176.714L31.838,-31.224C31.838,-31.224 87.282,-48.375 89.602,-46.07" style="fill:rgb(0,73,155);fill-rule:nonzero;"/>
                </g>
                <g transform="matrix(-0.523383,-0.852098,-0.852098,0.523383,805.105241,656.787935)">
                    <path d="M-93.819,-169.936C-93.819,-169.936 -125.505,-170.495 -132.833,-166.516L-93.819,54.486L-56.059,49.07L-93.819,-169.936Z" style="fill:rgb(10,33,99);fill-rule:nonzero;"/>
                </g>
                <g transform="matrix(0.929978,-0.367616,-0.367616,-0.929978,812.537069,754.696175)">
                    <path d="M-9.617,39.596L207.999,39.596C207.149,46.322 206.501,51.033 206.501,51.033L-9.311,51.569C-9.311,51.569 -9.466,46.622 -9.617,39.596" style="fill:rgb(208,228,249);fill-rule:nonzero;"/>
                </g>
                <g transform="matrix(1,0,0,1,1136.3604,693.5877)">
                    <path d="M0,23.634L2.015,4.753C2.015,4.753 -1.792,4.602 -0.501,1.892C0.791,-0.818 10.914,-2.756 10.914,-2.756L19.784,-2.297C19.784,-2.297 29.134,4.598 27.959,6.365C26.784,8.134 24.117,9.079 24.117,9.079L22.296,26.39L0,23.634Z" style="fill:rgb(0,154,225);fill-rule:nonzero;"/>
                </g>
                <g transform="matrix(0.540419,0.841396,0.841396,-0.540419,1120.701546,720.511135)">
                    <path d="M23.5,-10.15C23.5,-10.15 -0.011,6.116 -0.825,10.086C-1.638,14.055 18.11,41.256 23.5,38.83C28.891,36.403 45.917,22.238 45.917,22.238L23.5,-10.15Z" style="fill:rgb(255,172,0);fill-rule:nonzero;"/>
                </g>
                <g transform="matrix(1,0,0,1,1116.1416,951.3403)">
                    <path d="M0,-212.226C-6.392,-205.99 -75.322,-57.594 -41.98,-5.227L50.752,6.236C50.752,6.236 68.098,-1.456 70.648,-33.461C71.757,-47.372 63.839,-205.741 57.146,-208.441C50.454,-211.142 6.392,-218.462 0,-212.226" style="fill:rgb(255,208,98);fill-rule:nonzero;"/>
                </g>
                <g transform="matrix(-0.518499,-0.855078,-0.855078,0.518499,982.756213,699.775388)">
                    <path d="M-9.52,-12.606C-9.52,-12.606 1.2,-2.584 0.22,-1.684C-0.76,-0.783 -9.07,6.557 -9.52,6.067C-9.971,5.577 -17.121,-3.51 -17.121,-3.51L-9.52,-12.606Z" style="fill:rgb(255,171,0);fill-rule:nonzero;"/>
                </g>
                <g transform="matrix(-0.932798,-0.360401,-0.360401,0.932798,985.555978,754.152124)">
                    <path d="M0.407,-39.261C0.407,-39.261 0.132,-7.587 5.161,-0.198C5.161,-0.198 0.987,3.134 0.407,2.584C-0.173,2.034 -13.395,-13.964 -14.758,-32.196L0.407,-39.261Z" style="fill:rgb(255,171,0);fill-rule:nonzero;"/>
                </g>
                <g transform="matrix(1,0,0,1,1044.9521,696.1589)">
                    <path d="M0,54.139C0,54.139 20.878,48.159 23.101,42.725C25.323,37.292 14.952,14.627 10.301,13.014C5.649,11.401 -49.954,0 -50.825,2.086C-51.697,4.173 -53.798,17.998 -53.798,17.998C-53.798,17.998 -31.204,37.239 -28.864,45.851L0,54.139Z" style="fill:rgb(0,154,225);fill-rule:nonzero;"/>
                </g>
                <g transform="matrix(0.491907,-0.870648,-0.870648,-0.491907,1048.451553,741.656938)">
                    <path d="M-16.228,-8.385C-16.228,-8.385 -5.488,-6.274 -5.058,-4.733C-4.628,-3.195 -14.752,28.486 -16.228,28.004C-17.702,27.521 -27.607,24.284 -27.607,24.284L-16.228,-8.385Z" style="fill:rgb(255,171,0);fill-rule:nonzero;"/>
                </g>
                <g transform="matrix(1,0,0,1,1055.0742,911.7561)">
                    <path d="M0,-132.928C4.19,-127.995 12.666,-117.949 14.54,-104.21C16.415,-90.471 -0.384,15.513 -8.673,21.482C-16.963,27.452 -116.308,12.94 -119.76,4.338C-123.212,-4.264 -95.196,-118.754 -93.474,-122.558C-88.744,-133.006 -55.085,-135.647 -51.881,-142.093C-48.677,-148.539 -46.883,-160.177 -43.317,-160.279C-39.752,-160.38 -5.379,-154.813 -1.975,-151.402C1.431,-147.991 -4.189,-137.861 0,-132.928" style="fill:rgb(0,73,155);fill-rule:nonzero;"/>
                </g>
                <g transform="matrix(1,0,0,1,1085.2715,1014.2608)">
                    <path d="M0,-206.542C0,-206.542 -20.096,-205.436 -23.511,-196.329C-26.925,-187.223 -27.995,-164.28 -26.779,-160.527C-25.562,-156.773 -23.71,-155.568 -23.71,-155.568L-34.851,-62.092C-34.851,-62.092 -40.717,-57.542 -42.877,-50.583C-45.037,-43.623 -49.337,-15.924 -46.77,-12.338C-44.202,-8.751 -25.481,-3.896 -14.732,-1.959C-3.982,-0.021 20.971,0 22.841,-7.322C24.712,-14.644 28.625,-44.686 27.158,-49.125C25.69,-53.564 23.374,-56.465 23.374,-56.465L33.087,-149.128C33.087,-149.128 38.934,-150.727 39.898,-153.236C40.863,-155.746 43.491,-186.121 43.535,-189.337C43.622,-195.648 25.243,-206.157 25.243,-206.157L0,-206.542Z" style="fill:rgb(208,228,249);fill-rule:nonzero;"/>
                </g>
                <g transform="matrix(0.565785,0.824553,0.824553,-0.565785,1071.562974,783.425803)">
                    <path d="M23.298,-12.127C23.298,-12.127 -2.658,12.396 -1.443,15.285C-0.227,18.174 18.326,42.335 23.298,41.489C28.27,40.644 51.123,20.601 51.123,20.601L23.298,-12.127Z" style="fill:rgb(0,152,223);fill-rule:nonzero;"/>
                </g>
                <g transform="matrix(0.235194,0.971948,0.971948,-0.235194,1195.278505,811.691716)">
                    <path d="M13.944,-9.642C13.944,-9.642 3.349,-5.937 3.637,-4.348C3.928,-2.761 12.773,16.876 13.944,16.953C15.116,17.028 22.884,13.375 22.884,13.375L13.944,-9.642Z" style="fill:rgb(10,33,99);fill-rule:nonzero;"/>
                </g>
                <g transform="matrix(-0.779705,0.626147,0.626147,0.779705,1255.026685,800.70446)">
                    <path d="M9.345,-24.549C9.345,-24.549 -2.293,-9.599 -1.109,-8.897C0.074,-8.195 9.345,0.875 9.345,0.875L23.011,-8.255L9.345,-24.549Z" style="fill:rgb(255,172,0);fill-rule:nonzero;"/>
                </g>
                <g transform="matrix(-0.977822,0.209436,0.209436,0.977822,1233.155501,831.705121)">
                    <path d="M-1.671,-29.892C-1.671,-29.892 -2.475,-6.036 -6.465,-1.182C-6.465,-1.182 -3.838,1.323 -1.671,0.241C0.495,-0.84 10.625,-14.685 8.599,-25.899L-1.671,-29.892Z" style="fill:rgb(255,172,0);fill-rule:nonzero;"/>
                </g>
                <g transform="matrix(1,0,0,1,1189.1445,782.7239)">
                    <path d="M0,35.824C0,35.824 1.159,25.345 0.001,24.063C-1.158,22.78 -12.541,17.097 -12.689,12.97C-12.838,8.844 -7.013,-0.054 -4.001,-1.752C-0.989,-3.449 33.538,-3.845 50.474,3.015L44.976,28.378C44.976,28.378 29.342,25.285 28.729,27.373C28.115,29.462 27.365,39.669 27.365,39.669L0,35.824Z" style="fill:rgb(255,252,255);fill-rule:nonzero;"/>
                </g>
                <g transform="matrix(1,0,0,1,1185.7686,990.1099)">
                    <path d="M0,-167.729C0,-167.729 30.463,-164.258 32.206,-161.245C33.948,-158.23 26.608,-128.397 31.389,-121.165C36.168,-113.933 52.397,-93.17 50.929,-65.857C49.754,-44.017 35.534,-3.329 33.004,-1.507C30.473,0.315 -33.022,-4.563 -38.433,-7.926C-43.842,-11.29 -41.932,-103.813 -8.55,-127.42C-8.55,-127.42 -1.935,-168.044 0,-167.729" style="fill:rgb(0,152,223);fill-rule:nonzero;"/>
                </g>
                <g transform="matrix(1,0,0,1,868.5112,1018.0276)">
                    <path d="M0,-226.302C0,-226.302 -18.081,-211.93 -18.283,-189.528C-18.389,-177.837 -17.257,-158.119 -2.102,-147.118L35.484,-28.893C35.484,-28.893 30.79,-9.483 33.185,-2.625C35.579,4.232 41.162,7.261 41.162,7.261L109.923,-12.411C109.923,-12.411 111.111,-21.773 109.048,-28.729C106.985,-35.685 98.811,-46.234 98.811,-46.234L61.691,-165.318C61.691,-165.318 68.926,-182.239 53.387,-207.901C37.848,-233.563 11.458,-228.98 11.458,-228.98L0,-226.302Z" style="fill:rgb(208,228,249);fill-rule:nonzero;"/>
                </g>
                <g transform="matrix(1,0,0,1,905.2954,1018.2991)">
                    <path d="M0,-224.428C-12.848,-231.418 -25.326,-229.251 -25.326,-229.251L-36.784,-226.574C-36.784,-226.574 -54.865,-212.201 -55.067,-189.799C-55.173,-178.109 -54.041,-158.391 -38.886,-147.39L-1.3,-29.164C-1.3,-29.164 -5.994,-9.754 -3.6,-2.897C-1.206,3.961 4.378,6.99 4.378,6.99L73.139,-12.683C73.139,-12.683 74.327,-22.044 72.264,-29C70.201,-35.956 62.027,-46.505 62.027,-46.505L24.907,-165.589C24.907,-165.589 32.142,-182.51 16.603,-208.172" style="fill:none;fill-rule:nonzero;stroke:rgb(30,36,59);stroke-width:2.5px;"/>
                </g>
                <g transform="matrix(1,0,0,1,861.7168,760.6176)">
                    <path d="M0,40.439C0,40.439 -7.634,15.505 -7.252,12.768C-6.872,10.031 -6.45,8.235 -4.167,7.082C-1.885,5.927 16.137,1.537 16.885,0.837C17.631,0.139 22.123,0 23.342,2.501C24.562,5.002 32.764,30.245 32.764,30.245L1.47,39.764" style="fill:rgb(255,172,0);fill-rule:nonzero;"/>
                </g>
                <g transform="matrix(1,0,0,1,839.147,1095.5664)">
                    <path d="M0,-157.748C7.488,-148.408 26.797,-143.989 26.797,-143.989C26.797,-143.989 21.728,-9.878 69.533,12.577C117.339,35.033 355.254,29.591 378.895,14.178C402.536,-1.235 404.848,-135.205 404.848,-135.205C404.848,-135.205 429.575,-147.44 432.69,-159.38C435.804,-171.319 429.169,-189.9 429.169,-189.9L-1.875,-192.781C-1.875,-192.781 -7.488,-167.088 0,-157.748" style="fill:rgb(208,228,249);fill-rule:nonzero;"/>
                </g>
                <g transform="matrix(1,0,0,1,1223.6777,1107.4098)">
                    <path d="M0,-145.943C0,-145.943 -337.136,-152.222 -361.726,-158.692C-361.726,-158.692 -361.724,-158.073 -361.711,-156.921C-359.301,-156.192 -357.734,-155.834 -357.734,-155.834C-357.734,-155.834 -362.803,-21.721 -314.998,0.735C-302.836,6.447 -278.367,10.353 -248.257,12.749C-277.423,-17.229 -333.936,-81.93 -331.987,-131.437C-331.987,-131.437 -127.377,-93.151 0,-145.943" style="fill:rgb(188,218,243);fill-rule:nonzero;"/>
                </g>
                <g transform="matrix(1,0.000842,0.000842,-1,1104.862422,959.734201)">
                    <path d="M-0.002,-0.051C-0.002,-0.051 110.677,-4.709 121.137,-0.051" style="fill:none;fill-rule:nonzero;stroke:rgb(30,36,59);stroke-width:2.5px;"/>
                </g>
                <g transform="matrix(1,0,0,1,1243.9951,905.0153)">
                    <path d="M0,55.346C0,55.346 24.727,43.111 27.842,31.171C30.956,19.232 24.321,0.651 24.321,0.651L-207.687,0" style="fill:none;fill-rule:nonzero;stroke:rgb(30,36,59);stroke-width:2.5px;"/>
                </g>
                <g transform="matrix(-0.999978,-0.006678,-0.006678,0.999978,885.226477,902.698918)">
                    <path d="M-121.886,0.407L0.001,0.407" style="fill:none;fill-rule:nonzero;stroke:rgb(30,36,59);stroke-width:2.5px;"/>
                </g>
                <g transform="matrix(1,0,0,1,837.2725,958.3832)">
                    <path d="M0,-55.598C0,-55.598 -5.144,-24.847 4.427,-13.821C13.999,-2.794 122.456,-1.443 228.635,0" style="fill:none;fill-rule:nonzero;stroke:rgb(30,36,59);stroke-width:2.5px;"/>
                </g>
                <g transform="matrix(1,0,0,1,1012.3145,1059.5832)">
                    <path d="M0,-162.883L3.979,-150.214L28.761,-146.508C28.761,-146.508 37.706,-81.131 38.735,-74.336C39.766,-67.542 28.832,-15.728 34.413,-11.126C39.995,-6.524 143.656,13.085 149.521,-1.518C155.387,-16.12 168.3,-125.529 163.881,-132.374C159.463,-139.219 135.873,-148.607 135.873,-148.607C135.873,-148.607 137.336,-171.183 128.332,-173.575C119.328,-175.968 0,-162.883 0,-162.883" style="fill:rgb(255,172,0);fill-rule:nonzero;"/>
                </g>
                <g transform="matrix(1,0,0,1,1148.1875,1036.0676)">
                    <path d="M0,-125.091L-26.83,2.948C-26.83,2.948 -5.745,-5.127 -4.131,-19.779C-2.517,-34.432 0.262,-128.039 0.262,-128.039" style="fill:none;fill-rule:nonzero;stroke:rgb(30,36,59);stroke-width:1.5px;"/>
                </g>
                <g transform="matrix(1,0,0,1,1052.6738,923.4824)">
                    <path d="M0,-13.373C0,-13.373 83.908,-16.328 81.093,-14.972C78.277,-13.616 17.231,2.955 0,-13.373Z" style="fill:none;fill-rule:nonzero;stroke:rgb(30,36,59);stroke-width:1.5px;"/>
                </g>
                <g transform="matrix(1,0,0,1,1051.0498,1059.2041)">
                    <path d="M0,-73.957C1.03,-67.163 -9.903,-15.349 -4.322,-10.747C-1.833,-8.694 20.168,-3.656 44.301,0" style="fill:none;fill-rule:nonzero;stroke:rgb(30,36,59);stroke-width:2.5px;"/>
                </g>
                <g transform="matrix(1,0,0,1,1057.9854,913.0755)">
                    <path d="M0,-21.138C-24.88,-18.656 -45.671,-16.375 -45.671,-16.375L-41.691,-3.706L-16.91,0" style="fill:none;fill-rule:nonzero;stroke:rgb(30,36,59);stroke-width:2.5px;"/>
                </g>
                <g transform="matrix(0.937616,-0.347671,-0.347671,-0.937616,1188.626007,967.408942)">
                    <path d="M-18.296,-6.986C-6.494,16.848 3.11,38.455 2.321,42.014C0.559,49.968 -18.296,66.972 -18.296,66.972C-18.296,66.972 -9.075,87.631 -16.685,93.005C-18.805,94.501 -29.373,97.849 -43.515,101.901" style="fill:none;fill-rule:nonzero;stroke:rgb(30,36,59);stroke-width:2.5px;"/>
                </g>
                <g transform="matrix(1,0,0,1,1134.2383,1024.1228)">
                    <path d="M0,39.134C14.672,39.696 25.788,38.447 27.598,33.943C29.396,29.463 31.859,16.063 34.281,-0.562" style="fill:none;fill-rule:nonzero;stroke:rgb(30,36,59);stroke-width:2.5px;"/>
                </g>
            </g>
            <g id="TEXTS">
            </g>
        </g>
    </g>
</svg>
