<svg xmlns="http://www.w3.org/2000/svg" width="204.753" height="66.623" viewBox="0 0 204.753 66.623"><defs><style>.a{fill:#01a0c6;fill-rule:evenodd;}.b{fill:#120b7c;}</style></defs><g transform="translate(102.377 33.312)"><g transform="translate(-102.377 -33.312)"><g transform="translate(14.837)"><path class="a" d="M49.546,1.856s-1.3,10.5-1.317,12.718a35.835,35.835,0,0,0,1.965,11.894,11.447,11.447,0,0,1-2.278.254,15.583,15.583,0,0,1-6.209-2.532c-1.318-.823-4.391-.758-4.391-.758a23.455,23.455,0,0,0,1.317-2.278c2.389-6.636,4.564-7.4,7.087-13.239A22.646,22.646,0,0,1,49.546,1.856Z" transform="translate(-33.796 -1.856)"/><path class="a" d="M51.748,75.311s-2.034.354-5.58,1.328c-3.219.734-5.982-1.353-10.726-2.024-1.122-.176-4.328-.381-4.328-.381a2.754,2.754,0,0,0-.376,1.583,11.749,11.749,0,0,0,.061,1.961,28.649,28.649,0,0,1,4.893-.125c4.052.25,6.9,2.6,10.349,2.4,1.5-.124,5.268-.883,6.459-2.277A13.153,13.153,0,0,1,51.748,75.311Z" transform="translate(-30.725 -35.577)"/><path class="a" d="M56.077,88.689a46.058,46.058,0,0,0,4.954,6.58,97.974,97.974,0,0,0,8.719,7.466A43.531,43.531,0,0,0,62.787,104c-1.58.626-4.195,2.174-6.485,2.964a29.557,29.557,0,0,1-8.443,1.466l-5.519.5s-2.977-1.4-4.225-1.8a1.419,1.419,0,0,1-.732-.547c-3.927-5.619-5.579-15.178-5.579-17.2A41,41,0,0,1,42.4,90.4C44.285,90.777,48.126,92.046,56.077,88.689Z" transform="translate(-31.228 -42.311)"/><path class="a" d="M36.173,44.384a21.735,21.735,0,0,1,2.446.19c2.164.282,4.013,1.582,5.143,2.151a8.077,8.077,0,0,0,3.262.95,26.085,26.085,0,0,0,2.634-.254,4.862,4.862,0,0,0,.187,1.645c.251.7,1.318,2.341,1.193,3.859a13.007,13.007,0,0,0-2.949.127,9.932,9.932,0,0,1-6.272-1.266C40,50.459,38.744,49.32,35.8,49.7a3.2,3.2,0,0,0,.628-1.961C36.3,46.788,35.67,45.206,36.173,44.384Z" transform="translate(-33.087 -21.67)"/></g><g transform="translate(30.804 21.626)"><path class="b" d="M214.263,64.6l.171-.277Z" transform="translate(-132.201 -52.584)"/><path class="b" d="M214.7,64.006l-.1.154Z" transform="translate(-132.359 -52.437)"/><path class="b" d="M214.225,64.838Z" transform="translate(-132.163 -52.825)"/><path class="b" d="M164.481,53.954a20.528,20.528,0,0,1-6.559,7.722c-.754.486-2.361,1.629-2.9-.018a17.48,17.48,0,0,1,1.717-10.5c-1.557-.1-2.594-.516-4.237.956a5.547,5.547,0,0,0-4.076-1.506,5.867,5.867,0,0,0-5.472,3.3c-2.445,4.225-7.765,9.883-9.965,9.883-2.479,0-.435-4.768-.115-6.66s.923-3.81-.377-4.024a5.159,5.159,0,0,0-3.21.418l.417.869c-2.252,2.921-3.808,6.318-6.757,8.813-.511.281-2.41,1.274-2.522-.212-.283-7.556,2.09-13.806,3.323-20.655a6.335,6.335,0,0,1-1.93,1.168,8.227,8.227,0,0,1-5.735-1.085s.171,1.27.171,1.785c0,1.483,1.969,1.993,3.635,1.94l-1.4,7.289c-.595,3.047-8.243,10.412-12.336,10.412a2.943,2.943,0,0,1-3.112-3.137c4.631-.406,7.263-1.948,8.313-3.611s1.594-5.042-1.283-5.963a7.689,7.689,0,0,0-4.753.38c-1.535.555-2.277,1.955-3.627,2.667a6.1,6.1,0,0,1-1.3.524,4.455,4.455,0,0,1-2.488.124,4.682,4.682,0,0,1-2.9-1.172c-1.255-1.456-3.287-3.934-6.172-3.319a3.52,3.52,0,0,0-.3,1.968A6.952,6.952,0,0,0,83.2,54.027,38.174,38.174,0,0,1,75.048,60.5c-.043-3.1,1.077-7.285,1.988-10.683-1.448.318-3-.484-4.081,2.082a6.679,6.679,0,0,0-6.973.213,10.633,10.633,0,0,0-5.364,9.559,3.084,3.084,0,0,0,2.092,2.867c3.808,1.007,6.544-2.072,8.9-4.779-.108.795.285,2.533-.215,3.076-3.734,3.146-10.68,3.347-10.406,8.976a3.2,3.2,0,0,0,2.521,2.654,8.74,8.74,0,0,0,6.33-.742c3.863-2.231,4.881-6.212,4.827-10.356l5.966-4.039c.155,6.992,5.168,8.212,9.46,6.859,3.528-1.147,5.557-4.7,5.815-9.509l4.077.583a12.623,12.623,0,0,0-.5,3.4c0,2.916,1.836,5.79,5.329,5.79,4.556,0,9.194-3.583,12.52-7.3A27.234,27.234,0,0,0,116.994,63a3.255,3.255,0,0,0,2.467,3.238c4.271,1.011,7.135-3.929,9.5-6.848.244.8-.554,3.359-.214,4.566a2.994,2.994,0,0,0,2.144,2.283c3.808.8,7.248-2.99,9.662-5.751-.343,1.868-.441,4.993,1.71,5.751,2.7.952,6.345-1.517,9.238-6.649a10.14,10.14,0,0,0,.254,4.176c.662,1.587,2.119,1.77,3.407,1.664,4.437-.716,8.791-6.088,10.937-10.389C166.074,55.061,164.45,53.967,164.481,53.954Zm-57.638-.931c1.414-.521,2.116-.148,2.38.44a3.973,3.973,0,0,1-1.347,3.221,8.828,8.828,0,0,1-4.4,1.91C103.531,56.789,105.093,53.667,106.843,53.022ZM68.128,72.346c-1.233.318-3.49.608-3.647-.955-.166-2.847,4.614-4.656,6.809-6.01C71.236,67.982,70.929,71.6,68.128,72.346ZM65.393,61.886c-2.039.106-1.192-2.76-.913-3.823.645-1.913,2.2-4.485,4.4-4.911a3.666,3.666,0,0,1,3.6,1.329C71.087,57.242,67.7,61.694,65.393,61.886Zm27.072-5.444c.014,3.458-1.044,6.369-3.685,7.515-1.8.706-3.768.22-4.453-1.7a7.48,7.48,0,0,1,.966-5.575c.778-1.238,1.927-2.541,3.436-2.547a5.868,5.868,0,0,1,3.37,1.1A1.279,1.279,0,0,1,92.465,56.442Zm52.516,6.771c-1.874.113-1.862-1.954-1.61-3.724.353-2.469,1.764-6.174,4.552-6.33,2.072-.116,2.8.509,4.117,1.671C150.216,57.8,146.855,63.1,144.981,63.213Z" transform="translate(-60.619 -42.346)"/><path class="b" d="M141.674,51.112c1.044-1.828,3.112-2.735,4.975-3.529,1.8-.766,2.914-.93,3.614-2.376-1.392.371-2.375-.847-3.716-.688-2.2,1.116-3.149,3.771-4.971,5.364-.751-.8-1.345-2.215-2.472-2.481-.858-.159-2.532-.439-2.964.569C138.846,47.482,139.958,49.838,141.674,51.112Z" transform="translate(-95.804 -43.352)"/><path class="b" d="M194.377,53.522c1.021-.05,4.9-2.74,5.2-6.105l-3.058,2.5c-1.255.942-2.868.19-3.042.848a11.634,11.634,0,0,0-.271,2.37C193.195,53.5,193.355,53.573,194.377,53.522Z" transform="translate(-122.391 -44.709)"/><path class="b" d="M257.683,78.817a7.632,7.632,0,0,0-1.288.171l-.883.172a1.365,1.365,0,0,1,.26.847,1.938,1.938,0,0,1-.049.442l-.061.319a2.327,2.327,0,0,0-.049.478q0,.909.867.909a13,13,0,0,0,1.428-.221l.562-.1.159-.835a5.728,5.728,0,0,0,.122-1.068Q258.75,78.817,257.683,78.817Z" transform="translate(-151.419 -59.338)"/><path class="b" d="M331.051,61.435l-1.03-.575-.467-.261-.26.467c-4.108,7.364-6,8.464-6.76,8.464-.19,0-.507,0-.507-.934a14.222,14.222,0,0,1,.331-2.454l.378-1.909a25.485,25.485,0,0,0,.559-3.69c0-2.36-1.5-2.713-2.4-2.713-1.3,0-2.753.956-4.428,2.923a28,28,0,0,0-2.821,4.062l.017-.082a28.594,28.594,0,0,0,.652-4.243c0-2.329-1.264-2.677-2.018-2.677-2.147,0-4.444,2.309-6.988,7.042l.064-.65c.266-2.632.3-3.211.3-3.417,0-1.631-1.129-1.807-1.614-1.807a7.273,7.273,0,0,0-2.193.545l-.738.266.519.589a1.73,1.73,0,0,1,.349.71,5.017,5.017,0,0,1-1.893.427A6.972,6.972,0,0,1,296.24,60.3a7.122,7.122,0,0,0-5.314-3.215l-.294-.024-.177.237a2.388,2.388,0,0,0-.512,1.45,1.656,1.656,0,0,0,.027.289H289.9a6.878,6.878,0,0,0-5.114,2.259,7.529,7.529,0,0,0-1.933,3.48c-2.822,3.567-5.331,5.377-7.484,5.377a2.761,2.761,0,0,1-2.254-1.046,4.38,4.38,0,0,1-.9-2.867,6.729,6.729,0,0,1,1.429-4.13,3.765,3.765,0,0,1,2.939-1.822c1.118,0,1.574.419,1.574,1.445a.926.926,0,0,1-.082.355l-.434,1.036,1.077-.317c1.776-.522,2.676-1.374,2.676-2.534a2.068,2.068,0,0,0-1.148-1.812,4.9,4.9,0,0,0-2.547-.609,9.183,9.183,0,0,0-9.024,8.991,6.537,6.537,0,0,0,1.61,4.558,5.479,5.479,0,0,0,4.231,1.79c2.018,0,4.209-1,6.513-2.985a23.9,23.9,0,0,0,1.827-1.764,5.731,5.731,0,0,0,1.481,2.632,5.932,5.932,0,0,0,4.4,1.733,7.944,7.944,0,0,0,6.025-2.81,9.426,9.426,0,0,0,2.541-6.34,9.785,9.785,0,0,0,2.518.371,6.771,6.771,0,0,0,2.237-.388c-.023.336-.048.674-.087,1.029l-.283,2.61c-.373,3.42-.373,3.552-.373,3.623a1.693,1.693,0,0,0,1.811,1.906,3.667,3.667,0,0,0,1.453-.34l.638-.279-.435-.544a.3.3,0,0,1-.079-.169c0-.231.244-1.217,2.5-5.355s3.192-4.462,3.428-4.462l.027,0a.769.769,0,0,1,.04.286,25.482,25.482,0,0,1-.554,3.266l-.516,2.6c-.088.445-.177.873-.268,1.274a12.713,12.713,0,0,0-.381,2.115,1.515,1.515,0,0,0,1.671,1.625,2.259,2.259,0,0,0,.723-.091c.313-.092.469-.131.541-.147l.543-.12-.142-.538c-.013-.051-.024-.091-.029-.123.038-.2.382-1.12,3.018-5.185,3.03-4.652,4.059-5.013,4.3-5.013h.006a15.121,15.121,0,0,1-.331,2.021l-.34,1.69a20.717,20.717,0,0,0-.5,3.646c0,3.176,1.669,3.842,3.069,3.842,2.889,0,6.081-3.486,9.758-10.656l.235-.459ZM292.335,68.5a3.8,3.8,0,0,1-3.132,1.867,2.644,2.644,0,0,1-2.1-.937,3.655,3.655,0,0,1-.845-2.5A5.8,5.8,0,0,1,287.739,63a4.247,4.247,0,0,1,3.291-1.687,4.676,4.676,0,0,1,.816.1,6.245,6.245,0,0,0,1.674.89,5.655,5.655,0,0,1,.212,1.526A7.85,7.85,0,0,1,292.335,68.5Z" transform="translate(-157.552 -49.199)"/></g><path class="a" d="M24.565,22.47a3.114,3.114,0,0,1-.252,1.265c-.3.857-1.619,2.437-2.007,4.113a13.609,13.609,0,0,1-2.7,5.5,12.206,12.206,0,0,0,.126,2.847,4.025,4.025,0,0,1-.816,3.86c-1.442,2.025-1.442,2.847-1.442,3.479s.5,2.087.5,2.848-1.184,3.54-1.38,5.44c-.19,1.842.252,17.938,7.151,25.435,0,0-3.074-.507-3.764-.57a25.623,25.623,0,0,1-5.142-1.33A61.536,61.536,0,0,1,3.679,69.1s-1.417-2.515-.314-12.717c1.886-17.443,17.561-30.559,18.25-31.065S24.565,22.47,24.565,22.47Z" transform="translate(-2.945 -11.46)"/></g></g></svg>