<svg xmlns="http://www.w3.org/2000/svg" xmlns:xlink="http://www.w3.org/1999/xlink" viewBox="0 0 843.23 286.3"><defs><style>.cls-1{fill:#ac7c4d;}.cls-2{fill:#353435;}.cls-3{fill:url(#Dégradé_sans_nom_10);}.cls-4{fill:url(#Dégradé_sans_nom_10-2);}.cls-5{fill:url(#Dégradé_sans_nom_10-3);}.cls-6{fill:url(#Dégradé_sans_nom_10-4);}.cls-7{fill:url(#Dégradé_sans_nom_10-5);}.cls-8{fill:url(#Dégradé_sans_nom_10-6);}.cls-9{fill:url(#Dégradé_sans_nom_10-7);}.cls-10{fill:url(#Dégradé_sans_nom_10-8);}.cls-11{fill:url(#Dégradé_sans_nom_10-9);}.cls-12{fill:url(#Dégradé_sans_nom_10-10);}</style><linearGradient id="D&#xE9;grad&#xE9;_sans_nom_10" x1="129.04" y1="330.05" x2="129.04" y2="-34.96" gradientTransform="matrix(1, 0, 0, -1, 0, 287.3)" gradientUnits="userSpaceOnUse"><stop offset="0" stop-color="#d0995e"></stop><stop offset="1" stop-color="#895f3b"></stop></linearGradient><linearGradient id="D&#xE9;grad&#xE9;_sans_nom_10-2" x1="54.64" y1="330.05" x2="54.64" y2="-34.96" xlink:href="#D&#xE9;grad&#xE9;_sans_nom_10"></linearGradient><linearGradient id="D&#xE9;grad&#xE9;_sans_nom_10-3" x1="14.76" y1="330.05" x2="14.76" y2="-34.96" xlink:href="#D&#xE9;grad&#xE9;_sans_nom_10"></linearGradient><linearGradient id="D&#xE9;grad&#xE9;_sans_nom_10-4" x1="203.38" y1="330.05" x2="203.38" y2="-34.96" xlink:href="#D&#xE9;grad&#xE9;_sans_nom_10"></linearGradient><linearGradient id="D&#xE9;grad&#xE9;_sans_nom_10-5" x1="243.25" y1="330.05" x2="243.25" y2="-34.96" xlink:href="#D&#xE9;grad&#xE9;_sans_nom_10"></linearGradient><linearGradient id="D&#xE9;grad&#xE9;_sans_nom_10-6" x1="129.03" y1="330.05" x2="129.03" y2="-34.96" xlink:href="#D&#xE9;grad&#xE9;_sans_nom_10"></linearGradient><linearGradient id="D&#xE9;grad&#xE9;_sans_nom_10-7" x1="129.04" y1="330.05" x2="129.04" y2="-34.96" xlink:href="#D&#xE9;grad&#xE9;_sans_nom_10"></linearGradient><linearGradient id="D&#xE9;grad&#xE9;_sans_nom_10-8" x1="129.05" y1="330.05" x2="129.05" y2="-34.96" xlink:href="#D&#xE9;grad&#xE9;_sans_nom_10"></linearGradient><linearGradient id="D&#xE9;grad&#xE9;_sans_nom_10-9" x1="129.06" y1="330.05" x2="129.06" y2="-34.96" xlink:href="#D&#xE9;grad&#xE9;_sans_nom_10"></linearGradient><linearGradient id="D&#xE9;grad&#xE9;_sans_nom_10-10" x1="128.95" y1="330.05" x2="128.95" y2="-34.96" xlink:href="#D&#xE9;grad&#xE9;_sans_nom_10"></linearGradient></defs><title>logo-gris</title><g id="Calque_2" data-name="Calque 2"><g id="Calque_1-2" data-name="Calque 1"><g id="Calque_1-2-2" data-name="Calque 1-2"><path class="cls-1" d="M320,264.28h7.86V267H316.54V249.35H320Z"></path><path class="cls-1" d="M355.41,259.77a7.39,7.39,0,0,1-2.05,5.37,7.08,7.08,0,0,1-5.35,2.12,7,7,0,0,1-5.3-2.12,7.41,7.41,0,0,1-2-5.37v-3.18a7.49,7.49,0,0,1,2-5.37,7,7,0,0,1,5.29-2.13,7.13,7.13,0,0,1,5.35,2.13,7.4,7.4,0,0,1,2.06,5.37Zm-3.54-3.19a5.27,5.27,0,0,0-1-3.39,3.38,3.38,0,0,0-2.84-1.33,3.31,3.31,0,0,0-2.8,1.32,5.5,5.5,0,0,0-1,3.4v3.2a5.59,5.59,0,0,0,1,3.43,3.34,3.34,0,0,0,2.8,1.33,3.38,3.38,0,0,0,2.84-1.33,5.46,5.46,0,0,0,1-3.43Z"></path><path class="cls-1" d="M383.46,261v.08a5.76,5.76,0,0,1-1.74,4.52,7.86,7.86,0,0,1-10.15-.38,7.27,7.27,0,0,1-2-5.27v-3.51a7.37,7.37,0,0,1,1.95-5.27,6.58,6.58,0,0,1,5-2.07,7.33,7.33,0,0,1,5.12,1.68,5.68,5.68,0,0,1,1.79,4.58v.08H380a3.83,3.83,0,0,0-.84-2.68,3.35,3.35,0,0,0-2.61-.93,3,3,0,0,0-2.55,1.27,5.43,5.43,0,0,0-.94,3.29v3.53a5.38,5.38,0,0,0,1,3.32,3.15,3.15,0,0,0,2.65,1.29,3.08,3.08,0,0,0,2.46-.9A3.79,3.79,0,0,0,380,261Z"></path><path class="cls-1" d="M407.42,263.2h-6.19L400,267h-3.58l6.07-17.66h3.63l6,17.66h-3.57Zm-5.32-2.78h4.45l-2.18-6.93h-.07Z"></path><path class="cls-1" d="M438,252.08h-5V267H429.5V252.08h-5v-2.73H438Z"></path><path class="cls-1" d="M455.69,267h-3.54V249.35h3.54Z"></path><path class="cls-1" d="M485.37,259.77a7.39,7.39,0,0,1-2.05,5.37,7.08,7.08,0,0,1-5.35,2.12,7,7,0,0,1-5.3-2.12,7.41,7.41,0,0,1-2-5.37v-3.18a7.49,7.49,0,0,1,2-5.37,7,7,0,0,1,5.29-2.13,7.09,7.09,0,0,1,5.35,2.13,7.36,7.36,0,0,1,2.06,5.37Zm-3.54-3.19a5.27,5.27,0,0,0-1-3.39,3.38,3.38,0,0,0-2.84-1.33,3.31,3.31,0,0,0-2.8,1.32,5.5,5.5,0,0,0-1,3.4v3.2a5.59,5.59,0,0,0,1,3.43,3.34,3.34,0,0,0,2.8,1.33,3.38,3.38,0,0,0,2.84-1.33,5.46,5.46,0,0,0,1-3.43Z"></path><path class="cls-1" d="M514.36,267h-3.53l-7.13-12.07h-.07V267h-3.54V249.35h3.54l7.13,12.06h.07v-12h3.53Z"></path><path class="cls-1" d="M539.16,262.4a2.06,2.06,0,0,0-.72-1.64,7.37,7.37,0,0,0-2.53-1.16,14.3,14.3,0,0,1-4.77-2.16,4.1,4.1,0,0,1-1.61-3.42,4.23,4.23,0,0,1,1.85-3.55,7.65,7.65,0,0,1,4.72-1.38,7.12,7.12,0,0,1,4.74,1.55,4.63,4.63,0,0,1,1.77,3.82v.07h-3.43a2.53,2.53,0,0,0-.82-2,3.26,3.26,0,0,0-2.3-.76,3.4,3.4,0,0,0-2.2.63A2,2,0,0,0,533,254a1.75,1.75,0,0,0,.83,1.48,11.67,11.67,0,0,0,2.87,1.21,11.05,11.05,0,0,1,4.42,2.15,4.43,4.43,0,0,1,1.51,3.51,4.15,4.15,0,0,1-1.79,3.57,7.81,7.81,0,0,1-4.72,1.31,8.65,8.65,0,0,1-5-1.48,4.64,4.64,0,0,1-2.12-4.15v-.07h3.44a2.73,2.73,0,0,0,1,2.31,4.37,4.37,0,0,0,2.69.73,3.49,3.49,0,0,0,2.2-.59A1.89,1.89,0,0,0,539.16,262.4Z"></path><path class="cls-1" d="M584.94,263.2h-6.2l-1.2,3.81H574L580,249.35h3.62l6,17.66h-3.52Zm-5.33-2.78H584l-2.18-6.93h-.07Z"></path><path class="cls-1" d="M606.86,264.28h7.86V267H603.31V249.35h3.55Z"></path><path class="cls-1" d="M632.24,260.61V267H628.7V249.35h7a7,7,0,0,1,4.79,1.55,5.67,5.67,0,0,1,.16,8l-.16.15a7,7,0,0,1-4.79,1.54Zm0-2.73h3.5a3,3,0,0,0,2.24-.81,2.86,2.86,0,0,0,.76-2.06,3,3,0,0,0-.75-2.1,2.88,2.88,0,0,0-2.25-.83h-3.5Z"></path><path class="cls-1" d="M667.69,259.25h-7.32v5h8.55V267H656.83V249.35H668.9v2.73h-8.53v4.44h7.32Z"></path><path class="cls-1" d="M701.18,267V249.35h6.06a7.27,7.27,0,0,1,5.34,2.07,7.11,7.11,0,0,1,2.1,5.3v2.93a7.11,7.11,0,0,1-2.1,5.3,7.3,7.3,0,0,1-5.34,2.06Zm3.54-14.93v12.2H707a3.69,3.69,0,0,0,3-1.28,5,5,0,0,0,1.07-3.36V256.7a5,5,0,0,0-1.07-3.34,3.69,3.69,0,0,0-3-1.28Z"></path><path class="cls-1" d="M732.16,250.44l-2,4.25h-1.74l.72-4.24v-2.36h3Z"></path><path class="cls-1" d="M760.54,267H757v-7.34h-7.2V267H746.3V249.35h3.54v7.59H757v-7.59h3.53Z"></path><path class="cls-1" d="M789.78,249.35v11.72a5.56,5.56,0,0,1-2,4.58,9,9,0,0,1-10.26,0,5.63,5.63,0,0,1-1.94-4.58V249.35h3.55v11.71a3.4,3.4,0,0,0,.94,2.61,3.66,3.66,0,0,0,2.57.87,3.8,3.8,0,0,0,2.61-.86,3.35,3.35,0,0,0,.94-2.62V249.35Z"></path><path class="cls-1" d="M815.67,259.25h-7.31v5h8.55V267H804.82V249.35h12.07v2.73h-8.53v4.44h7.31Z"></path><path class="cls-1" d="M834.6,264.28h8.63V267H830.31v-1.85l8.4-13.08h-8.38v-2.73H843v1.77Z"></path><path class="cls-2" d="M314.35,80.3h39.83c9,0,11.55,2.55,11.55,11.39v9.45c0,8.84-2.56,11.39-11.55,11.39H321.87V132h-7.52Zm37.74,25.8c4.88,0,6.2-1.31,6.2-6.51V93.78c0-5.19-1.24-6.51-6.2-6.51H321.87V106.1Z"></path><path class="cls-2" d="M384,132V80.3h39.83c9,0,11.55,2.55,11.55,11.39v9.45c0,8.84-2.56,11.39-11.55,11.39h-4.26L440.12,132h-11L409.2,112.55H391.53V132Zm37.74-25.89c4.88,0,6.2-1.31,6.2-6.51V93.78c0-5.19-1.24-6.51-6.2-6.51H391.53V106.1Z"></path><path class="cls-2" d="M455.31,80.3h48.43v7H462.82v15.42h25.66v6.44H462.82V125h41.46v7h-49Z"></path><path class="cls-2" d="M565.15,93.47v-6.2H528.34v14.88h34.09c8.3,0,11.32,3,11.32,11.31v7.13c0,8.37-3,11.4-11.32,11.4H530.89c-8.37,0-11.39-3-11.39-11.4v-1.7l7.52-1.63V125h39.29V108.58h-34.1c-8.45,0-11.39-2.94-11.39-11.39v-5.5c0-8.45,3-11.39,11.39-11.39h29.06c8.37,0,11.32,2.94,11.32,11.39v.15Z"></path><path class="cls-2" d="M618,132H610.6V87.27H586.92v-7h54.71v7H618Z"></path><path class="cls-2" d="M656.35,80.3h7.52V132h-7.52Z"></path><path class="cls-2" d="M732.21,94.63V87.27H690.76V125h41.45V109H710.67v-6.43h29v18c0,8.45-2.94,11.4-11.31,11.4H694.63c-8.37,0-11.39-3-11.39-11.4V91.69c0-8.37,3-11.39,11.39-11.39h33.71c8.37,0,11.31,2.94,11.31,11.39V93Z"></path><path class="cls-2" d="M759,80.3h48.44v7H766.54v15.42h25.65v6.44H766.54V125H808v7H759Z"></path><path class="cls-2" d="M363.33,168.24v-7.36H321.87v37.74h41.46v-16H341.79v-6.43h29v18c0,8.44-3,11.39-11.32,11.39H325.74c-8.37,0-11.39-3-11.39-11.39v-28.9c0-8.37,3-11.39,11.39-11.39h33.71c8.37,0,11.32,3,11.32,11.39v1.32Z"></path><path class="cls-2" d="M390.14,153.9h48.43v7H397.65v15.42h25.66v6.43H397.65v15.89h41.46v7h-49Z"></path><path class="cls-2" d="M500,167.08v-6.2H463.17v14.87h34.09c8.3,0,11.32,3,11.32,11.32v7.13c0,8.37-3,11.39-11.32,11.39H465.72c-8.37,0-11.39-3-11.39-11.39v-1.71l7.52-1.62v7.75h39.29V182.19H467c-8.45,0-11.39-3-11.39-11.4v-5.5c0-8.44,3-11.39,11.39-11.39H496.1c8.37,0,11.32,3,11.32,11.39v.16Z"></path><path class="cls-2" d="M552.82,205.59h-7.44V160.88H521.75v-7h54.71v7H552.82Z"></path><path class="cls-2" d="M591.18,153.9h7.52v51.69h-7.52Z"></path><path class="cls-2" d="M629.46,205.59c-8.37,0-11.39-3-11.39-11.39V165.29c0-8.37,3-11.39,11.39-11.39h33.71c8.37,0,11.31,3,11.31,11.39V194.2c0,8.44-2.94,11.39-11.31,11.39Zm37.58-7V160.88H625.59v37.74Z"></path><path class="cls-2" d="M693.85,153.9h5.74l43.71,40.45V153.9h7.51v51.69H745l-43.71-40.45v40.45h-7.52Z"></path><path class="cls-3" d="M129,286.3a6.21,6.21,0,1,0-6.21-6.21h0A6.23,6.23,0,0,0,129,286.3Z"></path><path class="cls-4" d="M36.75,96.58a5.88,5.88,0,0,0-8.32,8.32L60,136.53H43.14a5.88,5.88,0,0,0,0,11.76h17L28.46,179.92a5.88,5.88,0,0,0,8.22,8.42l.09-.1,45.82-45.82Z"></path><path class="cls-5" d="M10,123a5.88,5.88,0,0,0-8.32,8.32h0l11.17,11.08L1.77,153.53a5.88,5.88,0,0,0,8.32,8.32l19.43-19.44Z"></path><path class="cls-6" d="M197.94,148.29h16.62a5.88,5.88,0,1,0,0-11.76H198L229.6,104.9a5.88,5.88,0,0,0-8.32-8.32l-45.84,45.84,45.81,45.82a5.88,5.88,0,0,0,8.32-8.32Z"></path><path class="cls-7" d="M245.14,142.41l11.13-11.12A5.88,5.88,0,0,0,248,123l-19.44,19.44,19.43,19.44a5.88,5.88,0,0,0,8.32-8.32Z"></path><path class="cls-8" d="M129,45.56l19.4-19.43a5.88,5.88,0,0,0-8.32-8.32L129,28.93,117.88,17.8a5.88,5.88,0,0,0-8.31,8.32Z"></path><path class="cls-9" d="M129,241.61,109.57,261a5.88,5.88,0,0,0,8.31,8.32L129,258.24l11.12,11.13a5.88,5.88,0,1,0,8.28-8.36Z"></path><path class="cls-10" d="M129,12.44a6.22,6.22,0,1,0-6.21-6.23h0A6.22,6.22,0,0,0,129,12.44Z"></path><path class="cls-11" d="M94.31,115.82l-5.57,5.57A5.88,5.88,0,0,0,97,129.7l32-31.93,32,32a5.88,5.88,0,0,0,8.41-8.22l-.1-.1-5.56-5.56,38.73-38.73a5.88,5.88,0,1,0-8.32-8.32l-38.73,38.73L137,89.16l37.82-37.82A5.9,5.9,0,0,0,166.51,43L134.88,74.66V58.32a5.88,5.88,0,1,0-11.76,0V74.63L91.49,43a5.88,5.88,0,0,0-8.32,8.32L121,89.14l-18.42,18.37L63.92,68.8a5.88,5.88,0,0,0-8.32,8.32Z"></path><path class="cls-12" d="M164,169.39l5.2-5.2a5.88,5.88,0,0,0-8.31-8.32L129,187.81l-32-32a5.88,5.88,0,0,0-8.32,8.31l5.22,5.23L55.65,207.7a5.88,5.88,0,0,0,8,8.61,2.83,2.83,0,0,0,.3-.3l38.32-38.32,19.38,19.39-38.49,38.5A5.88,5.88,0,1,0,91.4,244l.09-.1,31.63-31.63v16.1a5.88,5.88,0,0,0,11.76,0V212.29l31.63,31.63a5.88,5.88,0,0,0,8.42-8.21.47.47,0,0,0-.1-.1l-38.49-38.5,19.41-19.41L194,216a5.88,5.88,0,0,0,8.41-8.22l-.1-.1Z"></path><path class="cls-2" d="M145.26,140.93h-6.41v3h5.52c2.1,0,2.63.56,2.63,2.77v2.47c0,2.2-.56,2.76-2.63,2.76H131.52v-1.22h-3.19v12.22h3.19v-8.27h13.74c3.81,0,4.9-1.08,4.9-4.84v-4C150.16,142,149,140.93,145.26,140.93Z"></path><path class="cls-2" d="M133.84,133v-3.13H116.22v16h17.62V139h-9.15v-2.73H137V144c0,3.59-1.25,4.84-4.81,4.84H117.87c-3.56,0-4.84-1.29-4.84-4.84V131.69c0-3.55,1.28-4.84,4.84-4.84h14.32c3.56,0,4.81,1.26,4.81,4.84v.56Z"></path></g></g></g></svg>